<svg id="图层_1" data-name="图层 1" xmlns="http://www.w3.org/2000/svg" xmlns:xlink="http://www.w3.org/1999/xlink" viewBox="0 0 68.27 85.27"><defs><style>.cls-1{fill:url(#未命名的渐变_95);}.cls-2{fill:url(#未命名的渐变_95-2);}.cls-3{fill:url(#未命名的渐变_116);}.cls-4{fill:url(#未命名的渐变_116-2);}.cls-5{fill:url(#未命名的渐变_116-3);}.cls-6{fill:url(#未命名的渐变_95-3);}.cls-7{fill:url(#未命名的渐变_95-4);}.cls-8{fill:url(#未命名的渐变_116-4);}.cls-9{fill:url(#未命名的渐变_116-5);}.cls-10{fill:url(#未命名的渐变_116-6);}.cls-11{fill:url(#未命名的渐变_95-5);}.cls-12{fill:url(#未命名的渐变_95-6);}.cls-13{clip-path:url(#clip-path);}.cls-14{isolation:isolate;}.cls-15{fill:url(#未命名的渐变_95-8);}.cls-16{fill:url(#未命名的渐变_95-9);}.cls-17{fill:url(#未命名的渐变_95-10);}.cls-18{fill:url(#未命名的渐变_95-11);}.cls-19{fill:url(#未命名的渐变_95-12);}.cls-20{fill:url(#未命名的渐变_95-13);}.cls-21{fill:url(#未命名的渐变_95-14);}.cls-22{fill:url(#未命名的渐变_95-15);}.cls-23{fill:url(#未命名的渐变_95-16);}.cls-24{clip-path:url(#clip-path-2);}.cls-25{fill:url(#未命名的渐变_95-18);}.cls-26{fill:url(#未命名的渐变_95-19);}.cls-27{fill:url(#未命名的渐变_95-20);}.cls-28{fill:url(#未命名的渐变_95-21);}.cls-29{fill:url(#未命名的渐变_95-22);}.cls-30{fill:url(#未命名的渐变_95-23);}.cls-31{fill:url(#未命名的渐变_95-24);}.cls-32{fill:url(#未命名的渐变_116-7);}.cls-33{fill:url(#未命名的渐变_103);}.cls-34{fill:url(#未命名的渐变_95-25);}.cls-35{fill:url(#未命名的渐变_116-8);}.cls-36{fill:url(#未命名的渐变_116-9);}.cls-37{fill:url(#未命名的渐变_116-10);}</style><linearGradient id="未命名的渐变_95" x1="16.29" y1="72.95" x2="29.3" y2="72.95" gradientUnits="userSpaceOnUse"><stop offset="0" stop-color="#c23b70"/><stop offset="1" stop-color="#f06"/></linearGradient><linearGradient id="未命名的渐变_95-2" x1="50.23" y1="23.78" x2="48.39" y2="40.28" xlink:href="#未命名的渐变_95"/><linearGradient id="未命名的渐变_116" x1="18.72" y1="-9.25" x2="18.72" y2="45.54" gradientUnits="userSpaceOnUse"><stop offset="0" stop-color="#cfe9ff"/><stop offset="1" stop-color="#30f"/></linearGradient><linearGradient id="未命名的渐变_116-2" x1="5.25" y1="24.07" x2="28.81" y2="45.66" xlink:href="#未命名的渐变_116"/><linearGradient id="未命名的渐变_116-3" x1="19.6" y1="42.61" x2="18.03" y2="10.41" xlink:href="#未命名的渐变_116"/><linearGradient id="未命名的渐变_95-3" x1="9.11" y1="61.8" x2="21.78" y2="61.8" xlink:href="#未命名的渐变_95"/><linearGradient id="未命名的渐变_95-4" x1="11.01" y1="54.02" x2="27.83" y2="54.02" xlink:href="#未命名的渐变_95"/><linearGradient id="未命名的渐变_116-4" x1="-15.01" y1="-14.65" x2="100.18" y2="118.34" xlink:href="#未命名的渐变_116"/><linearGradient id="未命名的渐变_116-5" x1="20.39" y1="-9.14" x2="37.86" y2="30.52" xlink:href="#未命名的渐变_116"/><linearGradient id="未命名的渐变_116-6" x1="24.34" y1="-9.79" x2="35.33" y2="41.46" xlink:href="#未命名的渐变_116"/><linearGradient id="未命名的渐变_95-5" x1="3.96" y1="75.3" x2="27.06" y2="75.3" xlink:href="#未命名的渐变_95"/><linearGradient id="未命名的渐变_95-6" x1="23.11" y1="39.32" x2="39.93" y2="39.32" xlink:href="#未命名的渐变_95"/><clipPath id="clip-path"><path class="cls-1" d="M18.53,70.4,29.3,74a4.4,4.4,0,0,1-2.24,1.53L16.29,71.92A4.4,4.4,0,0,0,18.53,70.4Z"/></clipPath><linearGradient id="未命名的渐变_95-8" x1="18.38" y1="72.28" x2="29.3" y2="72.28" xlink:href="#未命名的渐变_95"/><linearGradient id="未命名的渐变_95-9" x1="18.2" y1="72.46" x2="29.15" y2="72.46" xlink:href="#未命名的渐变_95"/><linearGradient id="未命名的渐变_95-10" x1="17.99" y1="72.66" x2="28.96" y2="72.66" xlink:href="#未命名的渐变_95"/><linearGradient id="未命名的渐变_95-11" x1="17.74" y1="72.87" x2="28.75" y2="72.87" xlink:href="#未命名的渐变_95"/><linearGradient id="未命名的渐变_95-12" x1="17.41" y1="73.1" x2="28.5" y2="73.1" xlink:href="#未命名的渐变_95"/><linearGradient id="未命名的渐变_95-13" x1="16.29" y1="73.47" x2="28.17" y2="73.47" xlink:href="#未命名的渐变_95"/><linearGradient id="未命名的渐变_95-14" x1="23.11" y1="46.31" x2="38.14" y2="46.31" xlink:href="#未命名的渐变_95"/><linearGradient id="未命名的渐变_95-15" x1="45.08" y1="23.21" x2="43.24" y2="39.7" xlink:href="#未命名的渐变_95"/><linearGradient id="未命名的渐变_95-16" x1="35.2" y1="31.62" x2="50.24" y2="31.62" xlink:href="#未命名的渐变_95"/><clipPath id="clip-path-2"><path class="cls-2" d="M47,13.87,57.8,17.46A4.06,4.06,0,0,0,55,19.08L44.28,15.49A4.06,4.06,0,0,1,47,13.87Z"/></clipPath><linearGradient id="未命名的渐变_95-18" x1="50.73" y1="23.84" x2="48.9" y2="40.33" xlink:href="#未命名的渐变_95"/><linearGradient id="未命名的渐变_95-19" x1="49.82" y1="23.74" x2="47.99" y2="40.23" xlink:href="#未命名的渐变_95"/><linearGradient id="未命名的渐变_95-20" x1="49.56" y1="23.71" x2="47.73" y2="40.2" xlink:href="#未命名的渐变_95"/><linearGradient id="未命名的渐变_95-21" x1="49.35" y1="23.69" x2="47.52" y2="40.18" xlink:href="#未命名的渐变_95"/><linearGradient id="未命名的渐变_95-22" x1="49.18" y1="23.67" x2="47.34" y2="40.16" xlink:href="#未命名的渐变_95"/><linearGradient id="未命名的渐变_95-23" x1="49.02" y1="23.65" x2="47.19" y2="40.14" xlink:href="#未命名的渐变_95"/><linearGradient id="未命名的渐变_95-24" x1="65.4" y1="16.04" x2="0.99" y2="109.5" xlink:href="#未命名的渐变_95"/><linearGradient id="未命名的渐变_116-7" x1="33.77" y1="64.53" x2="50.94" y2="64.53" xlink:href="#未命名的渐变_116"/><linearGradient id="未命名的渐变_103" x1="11.34" y1="1.75" x2="73.39" y2="144.69" gradientUnits="userSpaceOnUse"><stop offset="0" stop-color="#ffcfe2"/><stop offset="1" stop-color="#f06"/></linearGradient><linearGradient id="未命名的渐变_95-25" x1="59.61" y1="27.58" x2="59.74" y2="12.79" xlink:href="#未命名的渐变_95"/><linearGradient id="未命名的渐变_116-8" x1="43.62" y1="48.25" x2="59.33" y2="89.48" xlink:href="#未命名的渐变_116"/><linearGradient id="未命名的渐变_116-9" x1="49.18" y1="39.16" x2="72.15" y2="82.56" xlink:href="#未命名的渐变_116"/><linearGradient id="未命名的渐变_116-10" x1="-20.49" y1="-9.91" x2="94.71" y2="123.08" xlink:href="#未命名的渐变_116"/></defs><title>练习</title><polygon class="cls-3" points="16.36 13.98 27.12 17.57 21.08 24.91 10.31 21.32 16.36 13.98"/><polygon class="cls-4" points="16.71 31.27 27.48 34.86 21.43 42.2 10.66 38.61 16.71 31.27"/><polygon class="cls-5" points="10.31 21.32 21.08 24.91 27.48 34.86 16.71 31.27 10.31 21.32"/><polygon class="cls-6" points="11.01 55.9 21.78 59.49 19.88 67.7 9.12 64.11 11.01 55.9"/><polygon class="cls-7" points="17.06 48.55 27.83 52.14 21.78 59.49 11.01 55.9 17.06 48.55"/><polygon class="cls-8" points="18.14 0 28.8 16.57 22.76 23.92 16.36 13.98 10.31 21.32 16.71 31.27 10.66 38.61 0 22.04 18.14 0"/><polygon class="cls-9" points="18.14 0 28.9 3.59 39.57 20.16 28.8 16.57 18.14 0"/><polygon class="cls-10" points="28.8 16.57 39.57 20.16 33.53 27.51 22.76 23.92 28.8 16.57"/><polygon class="cls-11" points="16.29 71.92 27.06 75.51 14.73 78.68 3.96 75.09 16.29 71.92"/><polygon class="cls-12" points="29.16 33.86 39.92 37.45 33.88 44.79 23.11 41.2 29.16 33.86"/><path class="cls-1" d="M18.53,70.4,29.3,74a4.4,4.4,0,0,1-2.24,1.53L16.29,71.92A4.4,4.4,0,0,0,18.53,70.4Z"/><g class="cls-13"><g class="cls-14"><path class="cls-15" d="M18.53,70.4,29.3,74l-.15.17L18.38,70.57l.15-.17"/><path class="cls-16" d="M18.38,70.57l10.77,3.59-.18.2L18.2,70.77l.18-.2"/><path class="cls-17" d="M18.2,70.77,29,74.35l-.21.2L18,71l.21-.2"/><path class="cls-18" d="M18,71l10.77,3.59-.25.21L17.74,71.18,18,71"/><path class="cls-19" d="M17.74,71.18,28.5,74.77l-.33.24L17.41,71.42l.33-.24"/><path class="cls-20" d="M17.41,71.42,28.17,75a3.64,3.64,0,0,1-1.11.5L16.29,71.92a3.64,3.64,0,0,0,1.11-.5"/></g></g><polygon class="cls-21" points="23.11 41.2 33.88 44.79 38.14 51.42 27.38 47.83 23.11 41.2"/><polygon class="cls-22" points="44.27 15.49 55.04 19.08 45.97 30.1 35.2 26.51 44.27 15.49"/><polygon class="cls-23" points="35.2 26.51 45.97 30.1 50.24 36.73 39.47 33.14 35.2 26.51"/><path class="cls-2" d="M47,13.87,57.8,17.46A4.06,4.06,0,0,0,55,19.08L44.28,15.49A4.06,4.06,0,0,1,47,13.87Z"/><g class="cls-24"><g class="cls-14"><path class="cls-25" d="M47,13.87,57.8,17.46a3.35,3.35,0,0,0-1.62.58L45.42,14.45A3.35,3.35,0,0,1,47,13.87"/><path class="cls-26" d="M45.42,14.45,56.19,18l-.33.24L45.09,14.68l.33-.24"/><path class="cls-27" d="M45.09,14.68l10.77,3.59-.25.21L44.84,14.9l.25-.21"/><path class="cls-28" d="M44.84,14.9l10.77,3.59-.21.2L44.63,15.1l.21-.2"/><path class="cls-29" d="M44.63,15.1l10.77,3.59-.19.2L44.44,15.3l.19-.2"/><path class="cls-30" d="M44.44,15.3l10.77,3.59-.17.19L44.28,15.49l.17-.19"/></g></g><polygon class="cls-31" points="52.8 28.75 63.57 32.34 29.3 73.98 18.53 70.4 52.8 28.75"/><polygon class="cls-32" points="33.77 57.77 44.54 61.35 50.94 71.29 40.17 67.7 33.77 57.77"/><path class="cls-33" d="M55.48,7.79c3.53,5.49,2.34,14.87-2.67,21L18.53,70.4a4.4,4.4,0,0,1-2.24,1.53L4,75.09a2.92,2.92,0,0,1-.53.09c-2,.13-3.36-2-3-4.71,0-.23.07-.46.13-.69l3.8-16.42A7.07,7.07,0,0,1,5.74,50.5l7.06-8.57,6-7.36,6-7.34,6-7.35L40,8.86C42.41,5.93,45.4,4.18,48.3,4A7.74,7.74,0,0,1,55.48,7.79ZM48.54,22.12c1.67-2,2.07-5.16.89-7A2.57,2.57,0,0,0,47,13.87a4.06,4.06,0,0,0-2.76,1.62l-9.07,11,4.27,6.63,9.07-11M15.28,62.53l6-7.35-4.27-6.63L11,55.9l-1.9,8.21,6.16-1.58m12.1-14.7,6-7.34-4.26-6.63-6,7.34,4.27,6.63"/><path class="cls-34" d="M68.09,21.8v-.09c0-.14,0-.28,0-.41,0-.31.07-.61.08-.92s0-.33,0-.5,0-.35,0-.53,0-.16,0-.25c0-.28,0-.57,0-.85s0-.28,0-.42,0-.13,0-.2,0-.38-.06-.57-.06-.49-.1-.73-.07-.37-.1-.56,0-.28-.08-.41-.05-.18-.07-.27-.1-.38-.16-.57-.06-.24-.1-.35-.09-.25-.13-.37l-.11-.31-.07-.2q-.15-.37-.32-.72l0-.07-.07-.13c-.07-.15-.15-.29-.23-.44s-.22-.37-.33-.55l0,0q-.17-.26-.34-.49l0-.05-.11-.14-.2-.25-.11-.13-.14-.16L65.17,10l-.23-.23-.11-.11,0,0-.39-.34,0,0-.11-.09L64,9l-.13-.08-.16-.11-.14-.1-.24-.14-.16-.09-.06,0-.48-.23h0L62.08,8l-.09,0L51.22,4.34q.32.11.62.24h0l.54.27.16.09.38.23.17.11.39.29.11.09q.24.2.47.41l.11.11.34.36.14.16.31.38.11.14c.14.18.27.38.4.57a11,11,0,0,1,.56,1l.07.13c.16.32.3.65.43,1l.11.31c.08.24.16.48.23.72s.11.38.16.57.11.45.15.68.07.37.1.56.07.48.1.73,0,.38.06.57,0,.42,0,.62,0,.56,0,.85,0,.51,0,.77,0,.33,0,.5-.05.61-.08.92c0,.14,0,.28,0,.42,0,.33-.1.67-.16,1,0,.12,0,.25-.06.37-.09.43-.19.86-.3,1.28l-.08.28c-.11.4-.23.81-.37,1.21v0c-.15.43-.31.86-.49,1.29l-.05.12q-.26.63-.57,1.24l0,.1q-.32.63-.67,1.23l0,.05a19.5,19.5,0,0,1-1.69,2.41l10.77,3.59h0l.46-.59.43-.59h0l.4-.59.37-.6,0,0,0-.05.3-.53.33-.63,0-.07,0-.1.23-.48q.16-.34.3-.68l0-.08,0-.12.21-.51q.14-.38.28-.76v-.06c.09-.25.17-.5.24-.76s.08-.3.12-.45l.08-.28.05-.19q.13-.53.24-1.06v0c0-.12,0-.24.06-.37C68,22.41,68,22.1,68.09,21.8Z"/><polygon class="cls-35" points="56.53 59.64 67.3 63.23 49.16 85.27 38.39 81.68 56.53 59.64"/><polygon class="cls-36" points="45.87 43.07 56.63 46.66 67.3 63.23 56.53 59.64 45.87 43.07"/><polygon class="cls-37" points="45.87 43.07 56.53 59.64 38.39 81.68 27.72 65.11 33.77 57.77 40.17 67.7 46.22 60.36 39.82 50.42 45.87 43.07"/></svg>