<svg id="图层_1" data-name="图层 1" xmlns="http://www.w3.org/2000/svg" xmlns:xlink="http://www.w3.org/1999/xlink" viewBox="0 0 78.33 72.89"><defs><style>.cls-1{fill:url(#未命名的渐变_200);}.cls-2{fill:url(#未命名的渐变_200-2);}.cls-3{fill:url(#未命名的渐变_200-3);}.cls-4{clip-path:url(#clip-path);}.cls-5{isolation:isolate;}.cls-6{fill:url(#未命名的渐变_200-5);}.cls-7{fill:url(#未命名的渐变_200-6);}.cls-8{fill:url(#未命名的渐变_200-7);}.cls-9{fill:url(#未命名的渐变_200-8);}.cls-10{fill:url(#未命名的渐变_200-9);}.cls-11{fill:url(#未命名的渐变_200-10);}.cls-12{fill:url(#未命名的渐变_200-11);}.cls-13{fill:url(#未命名的渐变_200-12);}.cls-14{fill:url(#未命名的渐变_200-13);}.cls-15{fill:url(#未命名的渐变_200-14);}.cls-16{fill:url(#未命名的渐变_162);}.cls-17{fill:url(#未命名的渐变_200-15);}.cls-18{fill:url(#未命名的渐变_162-2);}.cls-19{fill:url(#未命名的渐变_200-16);}.cls-20{clip-path:url(#clip-path-2);}.cls-21{fill:url(#未命名的渐变_200-18);}.cls-22{fill:url(#未命名的渐变_200-19);}.cls-23{fill:url(#未命名的渐变_200-20);}.cls-24{fill:url(#未命名的渐变_200-21);}.cls-25{fill:url(#未命名的渐变_200-22);}.cls-26{fill:url(#未命名的渐变_200-23);}.cls-27{fill:url(#未命名的渐变_200-24);}.cls-28{fill:url(#未命名的渐变_200-25);}.cls-29{fill:url(#未命名的渐变_200-26);}.cls-30{fill:url(#未命名的渐变_200-27);}.cls-31{fill:url(#未命名的渐变_200-28);}.cls-32{clip-path:url(#clip-path-3);}.cls-33{fill:url(#未命名的渐变_200-30);}.cls-34{fill:url(#未命名的渐变_200-31);}.cls-35{fill:url(#未命名的渐变_200-32);}.cls-36{fill:url(#未命名的渐变_200-33);}.cls-37{fill:url(#未命名的渐变_200-34);}.cls-38{fill:url(#未命名的渐变_200-35);}.cls-39{fill:url(#未命名的渐变_200-36);}.cls-40{fill:url(#未命名的渐变_5);}.cls-41{fill:url(#未命名的渐变_200-37);}</style><linearGradient id="未命名的渐变_200" x1="1.69" y1="2.97" x2="20.34" y2="2.97" gradientUnits="userSpaceOnUse"><stop offset="0" stop-color="#4f65e3"/><stop offset="1" stop-color="#5c42cf"/></linearGradient><linearGradient id="未命名的渐变_200-2" x1="54.54" y1="27.39" x2="54.54" y2="58.02" xlink:href="#未命名的渐变_200"/><linearGradient id="未命名的渐变_200-3" x1="59.22" y1="27.39" x2="59.22" y2="58.02" xlink:href="#未命名的渐变_200"/><clipPath id="clip-path"><path class="cls-1" d="M1.69,5.75,17.46.15l.12,0a4.92,4.92,0,0,1,2.76.23L4.57,5.94A4.92,4.92,0,0,0,1.81,5.7Z"/></clipPath><linearGradient id="未命名的渐变_200-5" x1="1.69" y1="2.93" x2="17.54" y2="2.93" xlink:href="#未命名的渐变_200"/><linearGradient id="未命名的渐变_200-6" x1="1.78" y1="2.88" x2="17.82" y2="2.88" xlink:href="#未命名的渐变_200"/><linearGradient id="未命名的渐变_200-7" x1="2.06" y1="2.83" x2="18.08" y2="2.83" xlink:href="#未命名的渐变_200"/><linearGradient id="未命名的渐变_200-8" x1="2.32" y1="2.8" x2="18.36" y2="2.8" xlink:href="#未命名的渐变_200"/><linearGradient id="未命名的渐变_200-9" x1="2.6" y1="2.8" x2="18.66" y2="2.8" xlink:href="#未命名的渐变_200"/><linearGradient id="未命名的渐变_200-10" x1="2.9" y1="2.82" x2="18.99" y2="2.82" xlink:href="#未命名的渐变_200"/><linearGradient id="未命名的渐变_200-11" x1="3.23" y1="2.87" x2="19.37" y2="2.87" xlink:href="#未命名的渐变_200"/><linearGradient id="未命名的渐变_200-12" x1="3.61" y1="2.95" x2="19.81" y2="2.95" xlink:href="#未命名的渐变_200"/><linearGradient id="未命名的渐变_200-13" x1="4.05" y1="3.07" x2="20.34" y2="3.07" xlink:href="#未命名的渐变_200"/><linearGradient id="未命名的渐变_200-14" x1="15.36" y1="60.15" x2="32.95" y2="60.15" xlink:href="#未命名的渐变_200"/><linearGradient id="未命名的渐变_162" x1="18.14" y1="66.12" x2="27.57" y2="112.2" gradientUnits="userSpaceOnUse"><stop offset="0" stop-color="#c2e8ff"/><stop offset="1" stop-color="#61a8ff"/></linearGradient><linearGradient id="未命名的渐变_200-15" x1="34.36" y1="65.28" x2="51.88" y2="65.28" xlink:href="#未命名的渐变_200"/><linearGradient id="未命名的渐变_162-2" x1="35.34" y1="62.61" x2="44.76" y2="108.69" xlink:href="#未命名的渐变_162"/><linearGradient id="未命名的渐变_200-16" x1="10.18" y1="45.96" x2="57.83" y2="45.96" xlink:href="#未命名的渐变_200"/><clipPath id="clip-path-2"><path class="cls-2" d="M60.81,55.69,45,61.29l.28-.12a3.64,3.64,0,0,0,1.44-1.45,9.6,9.6,0,0,0,.95-2.26,22.78,22.78,0,0,0,.56-2.4L64,49.47a22.78,22.78,0,0,1-.56,2.4,9.6,9.6,0,0,1-.95,2.26,3.64,3.64,0,0,1-1.44,1.45Z"/></clipPath><linearGradient id="未命名的渐变_200-18" x1="56.1" y1="27.39" x2="56.1" y2="58.02" xlink:href="#未命名的渐变_200"/><linearGradient id="未命名的渐变_200-19" x1="55.95" y1="27.39" x2="55.95" y2="58.02" xlink:href="#未命名的渐变_200"/><linearGradient id="未命名的渐变_200-20" x1="55.71" y1="27.39" x2="55.71" y2="58.02" xlink:href="#未命名的渐变_200"/><linearGradient id="未命名的渐变_200-21" x1="55.48" y1="27.39" x2="55.48" y2="58.02" xlink:href="#未命名的渐变_200"/><linearGradient id="未命名的渐变_200-22" x1="55.32" y1="27.39" x2="55.32" y2="58.02" xlink:href="#未命名的渐变_200"/><linearGradient id="未命名的渐变_200-23" x1="55.12" y1="27.39" x2="55.12" y2="58.02" xlink:href="#未命名的渐变_200"/><linearGradient id="未命名的渐变_200-24" x1="54.88" y1="27.39" x2="54.88" y2="58.02" xlink:href="#未命名的渐变_200"/><linearGradient id="未命名的渐变_200-25" x1="54.62" y1="27.39" x2="54.62" y2="58.02" xlink:href="#未命名的渐变_200"/><linearGradient id="未命名的渐变_200-26" x1="54.36" y1="27.39" x2="54.36" y2="58.02" xlink:href="#未命名的渐变_200"/><linearGradient id="未命名的渐变_200-27" x1="53.58" y1="27.39" x2="53.58" y2="58.02" xlink:href="#未命名的渐变_200"/><linearGradient id="未命名的渐变_200-28" x1="4.57" y1="9.76" x2="63.61" y2="9.76" xlink:href="#未命名的渐变_200"/><clipPath id="clip-path-3"><path class="cls-3" d="M54.4,18.69,70.16,13.1q-1.62,9.49-2.92,17.26c-.37,2.2-.73,4.4-1.1,6.56s-.7,4.14-1,5.91-.54,3.23-.75,4.41-.33,1.91-.37,2.22L48.28,55.06c0-.32.18-1.05.37-2.22s.46-2.64.75-4.41.62-3.75,1-5.91.72-4.37,1.1-6.56Q52.78,28.19,54.4,18.69Z"/></clipPath><linearGradient id="未命名的渐变_200-30" x1="60.65" y1="27.39" x2="60.65" y2="58.02" xlink:href="#未命名的渐变_200"/><linearGradient id="未命名的渐变_200-31" x1="58.81" y1="27.39" x2="58.81" y2="58.02" xlink:href="#未命名的渐变_200"/><linearGradient id="未命名的渐变_200-32" x1="58.09" y1="27.39" x2="58.09" y2="58.02" xlink:href="#未命名的渐变_200"/><linearGradient id="未命名的渐变_200-33" x1="57.32" y1="27.39" x2="57.32" y2="58.02" xlink:href="#未命名的渐变_200"/><linearGradient id="未命名的渐变_200-34" x1="56.64" y1="27.39" x2="56.64" y2="58.02" xlink:href="#未命名的渐变_200"/><linearGradient id="未命名的渐变_200-35" x1="56.19" y1="27.39" x2="56.19" y2="58.02" xlink:href="#未命名的渐变_200"/><linearGradient id="未命名的渐变_200-36" x1="56.16" y1="27.39" x2="56.16" y2="58.02" xlink:href="#未命名的渐变_200"/><linearGradient id="未命名的渐变_5" x1="29.05" y1="-0.19" x2="54.18" y2="138.04" gradientUnits="userSpaceOnUse"><stop offset="0" stop-color="#fcffff"/><stop offset="1" stop-color="#61a8ff"/></linearGradient><linearGradient id="未命名的渐变_200-37" x1="51" y1="11.62" x2="78.33" y2="11.62" xlink:href="#未命名的渐变_200"/></defs><title>练习</title><path class="cls-1" d="M1.69,5.75,17.46.15l.12,0a4.92,4.92,0,0,1,2.76.23L4.57,5.94A4.92,4.92,0,0,0,1.81,5.7Z"/><g class="cls-4"><g class="cls-5"><path class="cls-6" d="M1.69,5.75,17.46.15l.08,0L1.78,5.72l-.08,0"/><path class="cls-7" d="M1.78,5.72,17.54.12h0l.24-.06L2.06,5.64l-.24.06h0"/><path class="cls-8" d="M2.06,5.64,17.82.05l.26,0L2.32,5.61l-.26,0"/><path class="cls-9" d="M2.32,5.61,18.08,0h.28L2.6,5.59H2.32"/><path class="cls-10" d="M2.6,5.59,18.36,0h.3L2.9,5.6H2.6"/><path class="cls-11" d="M2.9,5.6,18.66,0,19,0,3.23,5.63l-.33,0"/><path class="cls-12" d="M3.23,5.63,19,0l.38.06L3.61,5.7l-.38-.06"/><path class="cls-13" d="M3.61,5.7,19.37.1l.44.1L4,5.79l-.44-.1"/><path class="cls-14" d="M4,5.79,19.81.2l.52.15L4.57,5.94,4,5.79"/></g></g><path class="cls-15" d="M32.95,59.33q0-.12,0-.25v-.25q0-.13,0-.25l0-.14v-.12q0-.14,0-.27l0-.14,0-.08,0-.08q0-.17-.09-.34l0-.08q-.08-.25-.17-.49c0-.12-.1-.24-.15-.36l-.12-.28a8.34,8.34,0,0,0-.45-.86l-.09-.14-.1-.15-.15-.21,0-.06-.19-.23,0-.05h0l-.22-.24-.07-.07-.06-.06L30.67,54l-.2-.18-.06-.05-.13-.1-.19-.14-.05,0,0,0-.09-.06-.18-.11-.08,0,0,0-.06,0-.18-.09L29.21,53h0L29,52.95l-.2-.07h0l-.21-.06-.21,0h0l-.19,0-.22,0h-.5l-.31,0h0l-.33.09-.07,0-11.34,4a2.92,2.92,0,0,1,.4-.11l.38,0h.44l.41.05h0l.43.11.42.15h0l.38.18,0,0,.36.22,0,0,.38.28.34.31.06.06.31.33,0,.05.24.3.15.21.19.29a8.33,8.33,0,0,1,.45.86l.12.28c.12.28.23.55.32.85s.1.34.14.51l0,.08c0,.16.07.32.09.48v.06q0,.24.05.49V63c0,.17,0,.35,0,.52s0,.36,0,.54h0c0,.17,0,.33-.07.48v0q0,.23-.11.45v0a4.43,4.43,0,0,1-.15.44c-.05.13-.11.26-.17.38L21,66q-.08.16-.17.3l0,0a3.69,3.69,0,0,1-.24.33,3.39,3.39,0,0,1-.28.3,3,3,0,0,1-1.06.65l11.34-4a3,3,0,0,0,1.06-.65,3.41,3.41,0,0,0,.28-.3h0a3.69,3.69,0,0,0,.23-.31h0l0,0,.13-.22,0-.09,0-.08,0-.08.1-.24,0-.06v0l.08-.21.06-.2h0v0l0-.17,0-.2,0-.08v-.12l0-.2c0-.07,0-.13,0-.2h0q0-.11,0-.22t0-.24V59.5Q32.95,59.42,32.95,59.33Z"/><path class="cls-16" d="M20.39,59.35a8.73,8.73,0,0,1,.89,2,7,7,0,0,1,.32,2.19,5.31,5.31,0,0,1-.37,2,3.89,3.89,0,0,1-.93,1.42,3,3,0,0,1-1.36.74,3,3,0,0,1-1.65-.06,4.57,4.57,0,0,1-1.66-.95,6.71,6.71,0,0,1-1.35-1.57,7.69,7.69,0,0,1-.89-2,7.16,7.16,0,0,1-.32-2.19,5.38,5.38,0,0,1,.37-2,3.78,3.78,0,0,1,.93-1.44,2.75,2.75,0,0,1,1.38-.71,3.38,3.38,0,0,1,1.67.1,4.74,4.74,0,0,1,1.64.91A6.39,6.39,0,0,1,20.39,59.35Z"/><path class="cls-17" d="M51.88,64.43q0-.13,0-.26V64s0-.09,0-.14,0-.18,0-.28v-.14l0-.14q0-.15-.05-.3v0l0-.07,0-.21-.08-.28,0-.13c0-.11-.07-.21-.11-.32l0-.1v0l0,0c-.08-.21-.17-.4-.26-.6L51,61.06c-.11-.21-.22-.41-.34-.61l0-.06-.09-.13-.22-.3,0-.05-.18-.22-.08-.09,0,0-.24-.26-.05,0-.06-.06-.1-.1-.2-.18,0,0-.15-.12L49,58.65l0,0,0,0-.09-.06-.17-.11-.11-.06,0,0,0,0-.19-.09-.18-.08h0l-.21-.08L47.71,58h0l-.22-.06-.21,0h0l-.21,0-.2,0H46.4l-.26,0h-.07l-.29.08-.07,0L34.36,62l.36-.1.37-.05h.43l.41.05h0l.43.11.44.16h0l.41.19,0,0,.37.22,0,0,.37.28.33.3.06.06.3.33.08.09L39,64l.22.3.13.19c.12.2.24.4.34.61l.08.17c.09.2.18.39.26.6l0,.07,0,.1c.05.15.1.29.14.45s.09.33.12.49l0,.07c0,.16.06.32.08.48v.07q0,.24,0,.48v.06c0,.17,0,.35,0,.52s0,.35,0,.51v0q0,.25-.06.49v0q0,.23-.1.45v0c0,.15-.08.29-.14.43A4.3,4.3,0,0,1,40,71l0,0q-.08.16-.18.31l0,0a3.21,3.21,0,0,1-.23.31,3,3,0,0,1-.3.31,3.23,3.23,0,0,1-1.11.67l11.34-4A3.23,3.23,0,0,0,50.61,68a3,3,0,0,0,.3-.31h0a3.2,3.2,0,0,0,.2-.27v0l0,0,.1-.17.07-.14,0,0,0,0,.1-.22.06-.16,0-.09.07-.22,0-.12v0l0-.06,0-.22,0-.17v0l0-.22q0-.11,0-.23v0c0-.06,0-.13,0-.19s0-.16,0-.25v-.07Q51.88,64.52,51.88,64.43Z"/><path class="cls-18" d="M39.36,64.47a7.44,7.44,0,0,1,.89,2,7.63,7.63,0,0,1,.29,2.18,5.9,5.9,0,0,1-.34,2,3.45,3.45,0,0,1-.93,1.43,3.26,3.26,0,0,1-1.36.75,3,3,0,0,1-1.67-.08,4.52,4.52,0,0,1-1.64-.93,7.42,7.42,0,0,1-1.35-1.57,7.51,7.51,0,0,1-.89-2,7.67,7.67,0,0,1-.29-2.18,5.93,5.93,0,0,1,.34-2,3.5,3.5,0,0,1,.93-1.43,3,3,0,0,1,1.38-.72,3.21,3.21,0,0,1,1.65.1,4.65,4.65,0,0,1,1.66.91A6.94,6.94,0,0,1,39.36,64.47Z"/><polygon class="cls-19" points="10.18 43.88 25.94 38.29 57.83 48.04 42.07 53.63 10.18 43.88"/><path class="cls-2" d="M60.81,55.69,45,61.29l.28-.12a3.64,3.64,0,0,0,1.44-1.45,9.6,9.6,0,0,0,.95-2.26,22.78,22.78,0,0,0,.56-2.4L64,49.47a22.78,22.78,0,0,1-.56,2.4,9.6,9.6,0,0,1-.95,2.26,3.64,3.64,0,0,1-1.44,1.45Z"/><g class="cls-20"><g class="cls-5"><path class="cls-21" d="M48.28,55.06,64,49.47q0,.28-.11.58L48.17,55.63q.06-.29.11-.58"/><path class="cls-22" d="M48.17,55.63,63.93,50q-.09.42-.2.85L48,56.49q.11-.44.2-.85"/><path class="cls-23" d="M48,56.49,63.73,50.9q-.12.47-.26,1l0,.11L47.68,57.57l0-.11q.14-.5.26-1"/><path class="cls-24" d="M47.68,57.57,63.44,52q-.07.24-.15.47L47.53,58q.08-.23.15-.47"/><path class="cls-25" d="M47.53,58l15.76-5.59q-.08.24-.18.48L47.35,58.52q.09-.23.18-.48"/><path class="cls-26" d="M47.35,58.52l15.76-5.59q-.1.25-.21.49L47.13,59q.11-.24.21-.49"/><path class="cls-27" d="M47.13,59,62.9,53.42q-.13.27-.26.52L46.87,59.53q.14-.25.26-.52"/><path class="cls-28" d="M46.87,59.53l15.76-5.59-.11.19-.15.24L46.61,60l.15-.24.11-.19"/><path class="cls-29" d="M46.61,60l15.76-5.59a4.27,4.27,0,0,1-.27.36L46.34,60.32a4.27,4.27,0,0,0,.27-.36"/><path class="cls-30" d="M46.34,60.32,62.1,54.73a3.34,3.34,0,0,1-1,.84l-.28.12L45,61.29l.28-.12a3.34,3.34,0,0,0,1-.84"/></g></g><polygon class="cls-31" points="4.57 5.94 20.34 0.34 63.61 13.57 47.85 19.17 4.57 5.94"/><path class="cls-3" d="M54.4,18.69,70.16,13.1q-1.62,9.49-2.92,17.26c-.37,2.2-.73,4.4-1.1,6.56s-.7,4.14-1,5.91-.54,3.23-.75,4.41-.33,1.91-.37,2.22L48.28,55.06c0-.32.18-1.05.37-2.22s.46-2.64.75-4.41.62-3.75,1-5.91.72-4.37,1.1-6.56Q52.78,28.19,54.4,18.69Z"/><g class="cls-32"><g class="cls-5"><path class="cls-33" d="M54.4,18.69,70.16,13.1q-1.62,9.49-2.92,17.26l-.34,2L51.14,38l.34-2q1.3-7.75,2.92-17.26"/><path class="cls-34" d="M51.14,38l15.76-5.59L66.47,35,50.71,40.59,51.14,38"/><path class="cls-35" d="M50.71,40.59,66.47,35l-.32,1.93q-.36,2.15-.68,4.05L49.7,46.57q.32-1.9.68-4.05l.32-1.93"/><path class="cls-36" d="M49.7,46.57,65.47,41l-.31,1.86-.23,1.39L49.17,49.81l.23-1.39.31-1.86"/><path class="cls-37" d="M49.17,49.81l15.76-5.59q-.29,1.75-.52,3c-.13.8-.24,1.39-.31,1.79L48.34,54.63c.07-.4.17-1,.31-1.79s.32-1.86.52-3"/><path class="cls-38" d="M48.34,54.63,64.1,49c0,.19-.05.33-.07.43L48.28,55.06c0-.1,0-.24.07-.43"/><polyline class="cls-39" points="48.27 55.06 64.04 49.46 64.04 49.47 48.27 55.06 48.27 55.06"/></g></g><path class="cls-40" d="M61.74,12.6a5.13,5.13,0,0,1,.83,2.93,9.66,9.66,0,0,1-.18,1.72,4.77,4.77,0,0,1-.58,1.64A3.62,3.62,0,0,1,60.73,20a1.82,1.82,0,0,1-1.58.13L54.4,18.69q-1.62,9.49-2.92,17.26c-.37,2.2-.73,4.4-1.1,6.56s-.7,4.14-1,5.91-.54,3.23-.75,4.41-.33,1.91-.37,2.22a22.78,22.78,0,0,1-.56,2.4,9.6,9.6,0,0,1-.95,2.26,3.64,3.64,0,0,1-1.44,1.45,2.71,2.71,0,0,1-2.13.07L10,51.09a3.5,3.5,0,0,1-2.36-1.89,7,7,0,0,1-.57-3q0-3.29,3.07-2.37l31.89,9.75,1-6.94L9.87,36.52a6.07,6.07,0,0,1-3.09-2.19,13.59,13.59,0,0,1-2-5.11c-.24-1.1-.59-2.6-1.06-4.52s-.94-3.85-1.42-5.81S1.35,15.16,1,13.54.32,10.85.2,10.33A9.5,9.5,0,0,1,0,8.53,3.36,3.36,0,0,1,.4,6.77,2.36,2.36,0,0,1,1.81,5.7a4.92,4.92,0,0,1,2.76.23L47.85,19.17c.13-1,.28-2,.41-2.95.09-.77.19-1.54.28-2.28s.19-1.32.28-1.72.2-.77.34-1.28a3.91,3.91,0,0,1,.65-1.33A2.54,2.54,0,0,1,51,8.76a3.44,3.44,0,0,1,2,.14l6.39,2A4.06,4.06,0,0,1,61.74,12.6Z"/><path class="cls-41" d="M78.33,9.78q0-.1,0-.21t0-.2,0-.2v0h0l0-.16,0-.2,0-.21,0-.14v0l0-.06q0-.15-.1-.3c0-.08-.06-.15-.1-.22l-.08-.18A5.15,5.15,0,0,0,77.5,7l0,0-.21-.29-.17-.2L77,6.41l0,0L77,6.31l-.14-.14-.14-.12-.14-.11,0,0h0l-.09-.07-.14-.1-.15-.09L76,5.57l-.06,0h0l-.08,0-.18-.08-.2-.08-.22-.07h0l-6.39-2-.34-.1-.22,0h-.08l-.27,0-.21,0h-.5l-.17,0-.22.06h0L51,8.76h0a2,2,0,0,1,.4-.08h0a2.81,2.81,0,0,1,.46,0h0a4.19,4.19,0,0,1,.51.07h0l.57.14,6.39,2a4.39,4.39,0,0,1,.68.27h0a4,4,0,0,1,.6.37h0a4,4,0,0,1,.52.47l0,0a4.53,4.53,0,0,1,.45.59,5.15,5.15,0,0,1,.33.61l.08.18a5,5,0,0,1,.21.58v0a5.16,5.16,0,0,1,.15.72h0a5.75,5.75,0,0,1,0,.78q0,.39,0,.81v.06c0,.28-.07.56-.13.85a5.41,5.41,0,0,1-.22.86h0a4.24,4.24,0,0,1-.35.76,4.11,4.11,0,0,1-.43.57l-.11.11a3.28,3.28,0,0,1-.53.45,1.47,1.47,0,0,1-.31.15l15.76-5.59a1.47,1.47,0,0,0,.31-.15A3.28,3.28,0,0,0,77,14l.11-.11.1-.1a4.14,4.14,0,0,0,.26-.35l.08-.12.07-.11.12-.24.1-.23.07-.19h0v0l.07-.22.06-.22.05-.22,0-.18,0-.26q0-.19.05-.37c0-.08,0-.15,0-.23v-.12q0-.17,0-.33t0-.32V9.93Q78.33,9.85,78.33,9.78Z"/></svg>