<svg id="图层_1" data-name="图层 1" xmlns="http://www.w3.org/2000/svg" xmlns:xlink="http://www.w3.org/1999/xlink" viewBox="0 0 127.79 103.05"><defs><style>.cls-1{fill:none;}.cls-2{opacity:0.3;}.cls-3{fill:url(#未命名的渐变_124);}.cls-4{fill:url(#未命名的渐变_16);}.cls-5{opacity:0.6;}.cls-6{fill:url(#未命名的渐变_124-2);}.cls-7{fill:#e94a09;}.cls-8{fill:#f4ba2c;}.cls-9{fill:url(#未命名的渐变_124-3);}.cls-10{opacity:0.86;}.cls-11{isolation:isolate;}.cls-12{clip-path:url(#clip-path);}.cls-13{fill:#fff;}.cls-14{fill:#fdaea8;}.cls-15{fill:#927154;}.cls-16{fill:#030d11;}.cls-17{fill:#114;}</style><linearGradient id="未命名的渐变_124" x1="-80.63" y1="3.96" x2="-27.22" y2="88.44" gradientTransform="matrix(1.15, -0.01, -0.01, 1, 168.06, -9.81)" gradientUnits="userSpaceOnUse"><stop offset="0" stop-color="#a994ff"/><stop offset="1" stop-color="#0070ff" stop-opacity="0.3"/></linearGradient><radialGradient id="未命名的渐变_16" cx="53.06" cy="110.44" r="58.17" gradientUnits="userSpaceOnUse"><stop offset="0.36" stop-color="aqua"/><stop offset="1" stop-color="aqua" stop-opacity="0"/></radialGradient><linearGradient id="未命名的渐变_124-2" x1="-85.37" y1="7.25" x2="-31.95" y2="91.73" xlink:href="#未命名的渐变_124"/><linearGradient id="未命名的渐变_124-3" x1="-90.62" y1="11" x2="-37.21" y2="95.48" xlink:href="#未命名的渐变_124"/><clipPath id="clip-path"><polygon class="cls-1" points="71.12 44.35 70.33 17.91 109.58 33.94 109.58 60.38 71.12 44.35"/></clipPath></defs><title>练习</title><g class="cls-2"><path class="cls-3" d="M120.42,13.76,84.93.31C80.28-1,76.55,1.81,76.64,6.49l.6,33.93c.08,4.68,4,9.56,8.59,10.84L119.49,64c4.65,1.28,8.38-1.5,8.3-6.18l-.6-33.93c-.08-4.68-4-9.56-8.6-10.84"/></g><path class="cls-4" d="M52.36,28.51,0,52.18,33,95.47h.14c1.57,4,8.28,7.58,19.64,7.58s17.72-3.55,18.89-7.58l36.07-43.29Z"/><g class="cls-5"><path class="cls-6" d="M114.95,17.1,79.45,3.64c-4.64-1.28-8.37,1.5-8.29,6.18l.6,33.93c.08,4.68,4,9.56,8.59,10.84L114,67.33c4.65,1.28,8.38-1.5,8.3-6.18l-.6-33.93c-.08-4.68-4-9.56-8.6-10.84"/></g><path class="cls-1" d="M82.88,38.31l-.1-.15Z"/><path class="cls-1" d="M82.59,37.85l-.11-.2Z"/><path class="cls-1" d="M82.73,38.09l-.11-.18Z"/><path class="cls-1" d="M83.21,38.71l-.08-.09Z"/><path class="cls-1" d="M83,38.52l-.09-.12Z"/><path class="cls-1" d="M82.46,37.61l-.11-.23Z"/><path class="cls-1" d="M83.11,31.77l.13,0Z"/><path class="cls-1" d="M90.69,33.7l0-.13Z"/><path class="cls-1" d="M82.95,31.81l.14,0Z"/><path class="cls-1" d="M82.33,37.36l-.11-.25Z"/><path class="cls-1" d="M82.22,37.09l-.1-.27Z"/><path class="cls-1" d="M91.48,39.17c0-.17,0-.34,0-.51C91.48,38.83,91.48,39,91.48,39.17Z"/><path class="cls-1" d="M91.43,38c0-.14,0-.29,0-.43C91.41,37.68,91.42,37.83,91.43,38Z"/><path class="cls-1" d="M91.47,38.61c0-.17,0-.34,0-.51C91.45,38.27,91.46,38.44,91.47,38.61Z"/><path class="cls-1" d="M91.38,37.36c0-.13,0-.26,0-.39C91.35,37.1,91.37,37.23,91.38,37.36Z"/><path class="cls-1" d="M90.85,34.3l0-.17Z"/><path class="cls-1" d="M83.28,31.75h0Z"/><path class="cls-1" d="M91.3,36.71c0-.1,0-.21,0-.31C91.28,36.5,91.29,36.61,91.3,36.71Z"/><path class="cls-1" d="M91.11,35.49l0-.23Z"/><path class="cls-1" d="M91,34.87l0-.17Z"/><path class="cls-1" d="M91.21,36.07l0-.25Z"/><path class="cls-1" d="M91.3,41.92a16.5,16.5,0,0,0,.19-2.7A16.5,16.5,0,0,1,91.3,41.92Z"/><path class="cls-1" d="M81.69,34.8a7.19,7.19,0,0,0,.42,2,7.2,7.2,0,0,1-.42-2Z"/><path class="cls-1" d="M83.46,31.75h0Z"/><path class="cls-1" d="M80.58,23.47l.25-.07Z"/><path class="cls-1" d="M83.84,31.84h0Z"/><path class="cls-1" d="M83.65,31.78l.07,0Z"/><path class="cls-1" d="M82.94,31.81a1.76,1.76,0,0,0-1,1.15A1.76,1.76,0,0,1,82.94,31.81Z"/><path class="cls-7" d="M87.29,47.87h0Z"/><path class="cls-8" d="M86.36,23.42l-.15-.08.15.08Z"/><path class="cls-8" d="M84.37,24l0,0Z"/><path class="cls-8" d="M84.08,23.86h0Z"/><path class="cls-8" d="M84.66,24.18l-.06,0Z"/><path class="cls-9" d="M108.87,20.89,73.37,7.44c-4.64-1.28-8.37,1.5-8.29,6.18l.6,33.93c.08,4.68,4,9.56,8.59,10.84l33.66,12.74c4.65,1.28,8.38-1.5,8.3-6.18L115.63,31c-.08-4.68-4-9.56-8.6-10.84"/><g class="cls-10"><g class="cls-11"><g class="cls-12"><polyline class="cls-13" points="85.82 24.19 70.33 17.73 70.02 36.45 85.52 42.91 85.82 24.19"/><polyline class="cls-13" points="108.78 33.76 88.26 25.05 88.17 30.62 108.69 39.33 108.78 33.76"/><polyline class="cls-13" points="108.65 42.25 88.12 33.54 88.06 37.47 108.58 46.17 108.65 42.25"/><polyline class="cls-13" points="108.55 48.57 88.02 39.86 87.95 43.78 108.48 52.49 108.55 48.57"/><polyline class="cls-13" points="108.44 55.38 69.98 39.35 69.91 43.85 108.36 59.88 108.44 55.38"/></g></g></g><g id="_编组_" data-name="&lt;编组&gt;"><path id="_路径_" data-name="&lt;路径&gt;" class="cls-14" d="M39.21,52.78s1.16,4.52,3.35,3.54c1.28-.57.92-3.54.92-3.54Z"/><path id="_路径_2" data-name="&lt;路径&gt;" class="cls-14" d="M71.46,45.25s3.92,0,2.14-3.07c-.12-.21.47-1.1.14-1.09-.15,0-1.18.86-1.35.89a4.19,4.19,0,0,0-2.5,1.89Z"/><path id="_路径_3" data-name="&lt;路径&gt;" class="cls-15" d="M43.68,95.07l-.15.14.09,1.19s4.63,2.5,7.36-3.79C52.79,88.46,44.71,94.27,43.68,95.07Z"/><path id="_路径_4" data-name="&lt;路径&gt;" class="cls-15" d="M52.88,96.11l-.71,3.3s2.53,3.27,8.76-1.69C66.92,92.95,52.88,96.11,52.88,96.11Z"/><g id="_编组_2" data-name="&lt;编组&gt;"><path id="_路径_5" data-name="&lt;路径&gt;" class="cls-14" d="M50.68,32.43,46.6,32.2c-.18,0,0-.18,0-.36L46.28,30a.32.32,0,0,1,.32-.32l3-1.5A11.18,11.18,0,0,1,51.85,30l-.72,1.9C51.13,32,50.86,32.43,50.68,32.43Z"/><path id="_路径_6" data-name="&lt;路径&gt;" class="cls-14" d="M54.62,25.95c.23,2.85-1.42,5.66-2.93,4.36-2.07-1.77-4.16-1.88-4.16-4.73S48,20.68,50,20.68,54.29,22,54.62,25.95Z"/><path id="_路径_7" data-name="&lt;路径&gt;" class="cls-16" d="M53.85,21a3.73,3.73,0,0,1-.18,1.74c-.73.74-2.58,1.78-2,3.1.49,1.15-1.09-.42-2.07-1.44a.67.67,0,0,0-1.12.26,3,3,0,0,0,.4,3c1.4,1.4-.73,2.23-2.59,2.23s-6.26-7.82,0-11.08C51.54,16.16,53.38,19.75,53.85,21Z"/></g><path id="_路径_8" data-name="&lt;路径&gt;" class="cls-17" d="M42.7,56.28s-1.51,7.72,0,11.26c2.17,5.08.91,28.2.91,28.2s4.76,2.78,5.5-5.56,1-24.09,1-24.09l1.2.46S53,87,52,98.25c-.16,1.78,4.84,2.13,5.72-3.56s1.4-35.63,1.4-35.63S47.67,54.16,42.7,56.28Z"/><path id="_路径_9" data-name="&lt;路径&gt;" class="cls-13" d="M46.81,31.77h0l6.23.89s6.41,1.25,8.19,4.81a35.14,35.14,0,0,0,4.45,6.59L69.6,43s2.49,2.49,2.31,3.56-9.44,6.05-9.44,6.05l-5.23-8.19,2.23,15S43.89,66.56,41.37,58l-.21-4.61-2-.62s-1.75-9.61,1.11-17.64A5.45,5.45,0,0,1,46.81,31.77Z"/></g></svg>