<svg xmlns="http://www.w3.org/2000/svg" xmlns:xlink="http://www.w3.org/1999/xlink" viewBox="0 0 208.38 149.03"><defs><style>.cls-1,.cls-10,.cls-26,.cls-27,.cls-28,.cls-31,.cls-32,.cls-33,.cls-9{fill:none;}.cls-2{isolation:isolate;}.cls-3{fill:url(#未命名的渐变_124);}.cls-4{fill:url(#未命名的渐变_124-2);}.cls-5{fill:url(#未命名的渐变_58);}.cls-6{fill:url(#未命名的渐变_124-3);}.cls-7{fill:url(#未命名的渐变_58-2);}.cls-8{fill:url(#未命名的渐变_58-3);}.cls-10,.cls-25,.cls-26,.cls-27,.cls-28,.cls-29,.cls-31,.cls-32,.cls-33,.cls-9{stroke-miterlimit:10;}.cls-10,.cls-9{stroke-width:2px;}.cls-11,.cls-9{opacity:0.5;}.cls-9{stroke:url(#未命名的渐变_37);}.cls-10{stroke:url(#未命名的渐变_37-2);}.cls-11{mix-blend-mode:multiply;}.cls-12{clip-path:url(#clip-path);}.cls-13{fill:#000930;}.cls-14{clip-path:url(#clip-path-2);}.cls-15{clip-path:url(#clip-path-3);}.cls-16{clip-path:url(#clip-path-4);}.cls-17{clip-path:url(#clip-path-5);}.cls-18{fill:url(#未命名的渐变_56);}.cls-19{fill:url(#未命名的渐变_37-3);}.cls-20{fill:url(#未命名的渐变_45);}.cls-21{fill:url(#未命名的渐变_53);}.cls-22{fill:url(#未命名的渐变_21);}.cls-23{fill:url(#未命名的渐变_37-4);}.cls-24{fill:url(#未命名的渐变_37-5);}.cls-25{fill:#00a8ea;stroke:#fff;}.cls-25,.cls-29{stroke-width:0.5px;}.cls-26,.cls-27,.cls-28,.cls-31,.cls-32,.cls-33{stroke-width:1.5px;}.cls-26{stroke:url(#未命名的渐变_37-6);}.cls-27,.cls-32{opacity:0.7;}.cls-27{stroke:url(#未命名的渐变_37-7);}.cls-28,.cls-33{opacity:0.4;}.cls-28{stroke:url(#未命名的渐变_37-8);}.cls-29{fill:#00b3f2;stroke:#5fddff;}.cls-30{fill:url(#未命名的渐变_58-5);}.cls-31{stroke:url(#未命名的渐变_37-9);}.cls-32{stroke:url(#未命名的渐变_37-10);}.cls-33{stroke:url(#未命名的渐变_37-11);}.cls-34{fill:url(#未命名的渐变_58-6);}.cls-35{clip-path:url(#clip-path-6);}.cls-36{fill:#a8a8a8;}.cls-37{fill:#a3a3a3;}.cls-38{fill:#9e9e9e;}.cls-39{fill:#999;}.cls-40{fill:url(#未命名的渐变_200);}.cls-41{fill:url(#未命名的渐变_200-2);}.cls-42{fill:#fff;}</style><linearGradient id="未命名的渐变_124" x1="71.82" y1="76.84" x2="69.73" y2="17.67" gradientUnits="userSpaceOnUse"><stop offset="0" stop-color="#a994ff"/><stop offset="1" stop-color="#0070ff" stop-opacity="0.3"/></linearGradient><linearGradient id="未命名的渐变_124-2" x1="62.13" y1="80.54" x2="60.04" y2="21.37" xlink:href="#未命名的渐变_124"/><linearGradient id="未命名的渐变_58" x1="62.29" y1="33.51" x2="62.29" y2="48.78" gradientUnits="userSpaceOnUse"><stop offset="0" stop-color="aqua"/><stop offset="1" stop-color="#0070ff" stop-opacity="0"/></linearGradient><linearGradient id="未命名的渐变_124-3" x1="80.38" y1="69.08" x2="78.87" y2="26.35" xlink:href="#未命名的渐变_124"/><linearGradient id="未命名的渐变_58-2" x1="70.99" y1="31.73" x2="70.99" y2="46.99" xlink:href="#未命名的渐变_58"/><linearGradient id="未命名的渐变_58-3" x1="52.6" y1="37.21" x2="52.6" y2="52.47" xlink:href="#未命名的渐变_58"/><linearGradient id="未命名的渐变_37" y1="104.99" x2="208.38" y2="104.99" gradientUnits="userSpaceOnUse"><stop offset="0" stop-color="aqua"/><stop offset="1" stop-color="#0070ff"/></linearGradient><linearGradient id="未命名的渐变_37-2" y1="91.39" x2="208.38" y2="91.39" xlink:href="#未命名的渐变_37"/><clipPath id="clip-path"><path class="cls-1" d="M186.06,88.54l-.3,9.76a3,3,0,0,1-.29,1.18,4.29,4.29,0,0,1-.8,1.14,7.25,7.25,0,0,1-1.31,1.06,12.25,12.25,0,0,1-1.83,1l.29-9.8a12.32,12.32,0,0,0,1.83-1A7.24,7.24,0,0,0,185,90.83a4.25,4.25,0,0,0,.8-1.13A2.93,2.93,0,0,0,186.06,88.54Z"/></clipPath><clipPath id="clip-path-2"><path class="cls-1" d="M22.68,96.73,22.6,87a2.94,2.94,0,0,0,.27,1.18,4.29,4.29,0,0,0,.79,1.15A7.33,7.33,0,0,0,25,90.39a12.5,12.5,0,0,0,1.84,1l.08,9.8a12.42,12.42,0,0,1-1.84-1,7.34,7.34,0,0,1-1.31-1.1A4.33,4.33,0,0,1,23,97.92,3,3,0,0,1,22.68,96.73Z"/></clipPath><clipPath id="clip-path-3"><path class="cls-1" d="M115.82,120.88l-.14,10a23.84,23.84,0,0,1-5.4,1.52A36.42,36.42,0,0,1,98,132.33a24.07,24.07,0,0,1-5.39-1.62l.08-10a24.33,24.33,0,0,0,5.4,1.61,36.9,36.9,0,0,0,12.35.12A24.09,24.09,0,0,0,115.82,120.88Z"/></clipPath><clipPath id="clip-path-4"><path class="cls-1" d="M93.67,56.36a24.06,24.06,0,0,1,5-1.29,36.88,36.88,0,0,1,11.44.11,24.32,24.32,0,0,1,5,1.39l65.83,27a11.78,11.78,0,0,1,3.64,2.19A4,4,0,0,1,186,88.21a3.25,3.25,0,0,1-.93,2.47,9.15,9.15,0,0,1-3.29,2.16l-66,28a24.09,24.09,0,0,1-5.41,1.51,36.9,36.9,0,0,1-12.35-.12,24.33,24.33,0,0,1-5.4-1.61L26.81,91.39a9.32,9.32,0,0,1-3.28-2.22,3.29,3.29,0,0,1-.92-2.49A3.93,3.93,0,0,1,24,84.22a11.58,11.58,0,0,1,3.65-2.12Z"/></clipPath><clipPath id="clip-path-5"><polyline class="cls-1" points="181.03 83.54 181.03 83.54 183.13 84.58 184.67 85.73 185.65 86.95 186.05 88.21 185.87 89.46 185.11 90.68 183.77 91.82 181.82 92.84 115.82 120.88 113.25 121.76 110.4 122.38 107.36 122.75 104.22 122.85 101.09 122.69 98.05 122.27 95.2 121.59 92.65 120.66 26.81 91.39 24.87 90.33 23.53 89.16 22.78 87.93 22.61 86.67 23.02 85.42 24 84.22 25.55 83.1 27.65 82.09 93.67 56.36 96.07 55.6 98.72 55.06 101.54 54.76 104.45 54.67 107.35 54.81 110.16 55.17 112.81 55.76 115.2 56.56 181.03 83.54"/></clipPath><linearGradient id="未命名的渐变_56" x1="35.38" y1="99.06" x2="173.61" y2="99.06" gradientUnits="userSpaceOnUse"><stop offset="0" stop-color="#00aeff"/><stop offset="0.33" stop-color="#0074d5"/><stop offset="0.59" stop-color="#009aff"/><stop offset="1" stop-color="#0037d1"/></linearGradient><linearGradient id="未命名的渐变_37-3" x1="22.46" y1="79.63" x2="185.92" y2="79.63" xlink:href="#未命名的渐变_37"/><linearGradient id="未命名的渐变_45" x1="67.85" y1="138.24" x2="150.58" y2="2.89" gradientUnits="userSpaceOnUse"><stop offset="0" stop-color="#5effff"/><stop offset="1" stop-color="#0070ff"/></linearGradient><linearGradient id="未命名的渐变_53" x1="190.44" y1="97.29" x2="54.57" y2="68.23" gradientUnits="userSpaceOnUse"><stop offset="0.55" stop-color="#00a0e6"/><stop offset="1" stop-color="#0052a5"/></linearGradient><linearGradient id="未命名的渐变_21" x1="195.1" y1="135.1" x2="67.64" y2="60.27" gradientUnits="userSpaceOnUse"><stop offset="0.36" stop-color="#0062b1"/><stop offset="1" stop-color="#003592"/></linearGradient><linearGradient id="未命名的渐变_37-4" x1="64.14" y1="68.18" x2="172.53" y2="96.98" xlink:href="#未命名的渐变_37"/><linearGradient id="未命名的渐变_37-5" x1="70" y1="60.84" x2="153.67" y2="101.37" xlink:href="#未命名的渐变_37"/><linearGradient id="未命名的渐变_37-6" x1="25.02" y1="60.34" x2="40.17" y2="60.34" xlink:href="#未命名的渐变_37"/><linearGradient id="未命名的渐变_37-7" x1="25.02" y1="53.24" x2="40.17" y2="53.24" xlink:href="#未命名的渐变_37"/><linearGradient id="未命名的渐变_37-8" x1="25.02" y1="46.14" x2="40.17" y2="46.14" xlink:href="#未命名的渐变_37"/><linearGradient id="未命名的渐变_58-5" x1="32.59" y1="50.96" x2="32.59" y2="77.18" xlink:href="#未命名的渐变_58"/><linearGradient id="未命名的渐变_37-9" x1="168.86" y1="60.5" x2="184" y2="60.5" xlink:href="#未命名的渐变_37"/><linearGradient id="未命名的渐变_37-10" x1="168.86" y1="53.41" x2="184" y2="53.41" xlink:href="#未命名的渐变_37"/><linearGradient id="未命名的渐变_37-11" x1="168.86" y1="46.31" x2="184" y2="46.31" xlink:href="#未命名的渐变_37"/><linearGradient id="未命名的渐变_58-6" x1="176.43" y1="51.12" x2="176.43" y2="77.35" xlink:href="#未命名的渐变_58"/><clipPath id="clip-path-6"><path class="cls-1" d="M73.36,7.5l3.4,1.14a5.86,5.86,0,0,0-2.06-.3L71.3,7.2A5.86,5.86,0,0,1,73.36,7.5Z"/></clipPath><linearGradient id="未命名的渐变_200" x1="64.29" y1="5.79" x2="53.49" y2="54.29" gradientUnits="userSpaceOnUse"><stop offset="0" stop-color="#4f65e3"/><stop offset="1" stop-color="#5c42cf"/></linearGradient><linearGradient id="未命名的渐变_200-2" x1="51.02" y1="2.84" x2="40.22" y2="51.34" xlink:href="#未命名的渐变_200"/></defs><title>练习</title><g class="cls-2"><g id="图层_1" data-name="图层 1"><path class="cls-3" d="M80,62.69,69.54,59.42A11.67,11.67,0,0,1,61.4,49.09l-.51-28.89,2.36,0,.51,28.89a9.31,9.31,0,0,0,6.45,8.11l10.47,3.28Z"/><path class="cls-4" d="M70.28,66.38,59.85,63.12a11.67,11.67,0,0,1-8.14-10.33L51.2,23.9l2.36,0,.51,28.89a9.31,9.31,0,0,0,6.45,8.11L71,64.13Z"/><rect class="cls-5" x="61.13" y="31.74" width="2.33" height="18.22"/><path class="cls-6" d="M88.67,58.77,78.24,55.51A11.67,11.67,0,0,1,70.1,45.18l-.51-16.9,2.36,0,.51,16.9a9.31,9.31,0,0,0,6.45,8.11l10.47,3.28Z"/><rect class="cls-7" x="69.82" y="29.96" width="2.33" height="18.22"/><rect class="cls-8" x="51.44" y="35.44" width="2.33" height="18.22"/><rect class="cls-7" x="69.82" y="29.96" width="2.33" height="18.22"/><path class="cls-9" d="M90.74,64.08a30.38,30.38,0,0,1,6.38-1.63,46.56,46.56,0,0,1,14.44.14,30.7,30.7,0,0,1,6.36,1.75L201,98.4a14.87,14.87,0,0,1,4.59,2.77,5,5,0,0,1,1.74,3.13,4.1,4.1,0,0,1-1.18,3.12,11.55,11.55,0,0,1-4.15,2.73l-83.34,35.4a30.42,30.42,0,0,1-6.83,1.9,46.59,46.59,0,0,1-15.59-.15,30.72,30.72,0,0,1-6.82-2l-83.13-37a11.77,11.77,0,0,1-4.14-2.81A4.15,4.15,0,0,1,1,102.36a5,5,0,0,1,1.75-3.1,14.62,14.62,0,0,1,4.61-2.68Z"/><path class="cls-10" d="M90.74,50.48a30.38,30.38,0,0,1,6.38-1.63,46.56,46.56,0,0,1,14.44.14,30.7,30.7,0,0,1,6.36,1.75L201,84.8a14.87,14.87,0,0,1,4.59,2.77,5,5,0,0,1,1.74,3.13,4.1,4.1,0,0,1-1.18,3.12A11.55,11.55,0,0,1,202,96.54l-83.34,35.4a30.42,30.42,0,0,1-6.83,1.9,46.59,46.59,0,0,1-15.59-.15,30.72,30.72,0,0,1-6.82-2L6.32,94.7A11.77,11.77,0,0,1,2.18,91.9,4.15,4.15,0,0,1,1,88.75a5,5,0,0,1,1.75-3.1A14.62,14.62,0,0,1,7.38,83Z"/><g class="cls-11"><g class="cls-12"><path class="cls-13" d="M186.06,88.54l-.3,9.76v.31l.3-9.76v-.3"/><path class="cls-13" d="M186,88.85l-.3,9.76,0,.12,0,.12,0,.12,0,.12.3-9.77,0-.12,0-.12,0-.12,0-.12"/><path class="cls-13" d="M185.92,89.33l-.3,9.77,0,.12,0,.12-.05.12-.06.12.3-9.77.06-.12.05-.12,0-.12,0-.12"/><path class="cls-13" d="M185.73,89.79l-.3,9.77-.06.12-.07.11-.07.11-.08.11.3-9.77.08-.11.07-.11.07-.11.06-.11"/><path class="cls-13" d="M185.46,90.24l-.3,9.77-.08.11-.09.11-.09.11-.1.11.29-9.78.1-.11.09-.11.09-.11.08-.11"/><path class="cls-13" d="M185.1,90.69l-.29,9.78-.11.12-.11.12-.12.11-.12.11.29-9.78.12-.11.12-.11.11-.11.11-.12"/><path class="cls-13" d="M184.64,91.15l-.29,9.78-.14.12-.14.12-.15.12-.16.12.29-9.79.16-.12.15-.12.15-.12.14-.12"/><path class="cls-13" d="M184,91.62l-.29,9.79-.19.13-.2.13-.2.13-.21.13.29-9.79.21-.13.2-.13.2-.13.19-.13"/><path class="cls-13" d="M183.25,92.14l-.29,9.79-.28.16-.29.15-.3.15-.32.15.29-9.8.32-.15.3-.15.29-.15.28-.15"/><path class="cls-13" d="M182.06,92.74l-.29,9.8-.06,0-.06,0-.06,0-.06,0,.29-9.8.06,0,.06,0,.06,0,.06,0"/></g><g class="cls-14"><path class="cls-13" d="M26.81,91.39l.08,9.8a12.42,12.42,0,0,1-1.84-1,7.34,7.34,0,0,1-1.31-1.1A4.33,4.33,0,0,1,23,97.92a3,3,0,0,1-.27-1.2L22.6,87a2.94,2.94,0,0,0,.27,1.18,4.29,4.29,0,0,0,.79,1.15A7.33,7.33,0,0,0,25,90.39a12.5,12.5,0,0,0,1.84,1"/></g><polygon class="cls-13" points="181.82 92.84 181.54 102.64 115.68 130.92 115.82 120.88 181.82 92.84"/><polygon class="cls-13" points="92.65 120.66 92.57 130.71 26.89 101.19 26.81 91.39 92.65 120.66"/><g class="cls-15"><path class="cls-13" d="M115.82,120.88l-.14,10c-.51.22-1.05.42-1.61.61s-1.14.35-1.75.5-1.22.28-1.85.39-1.28.2-1.94.28l.12-10.06c.66-.07,1.31-.16,1.94-.27s1.26-.24,1.86-.38,1.19-.31,1.75-.49,1.1-.38,1.62-.6"/><path class="cls-13" d="M108.65,122.63l-.12,10.06-.46,0-.46,0-.47,0-.47,0,.11-10.06.47,0,.47,0,.47,0,.46,0"/><path class="cls-13" d="M106.79,122.78l-.11,10.06-.37,0-.37,0h-.75l.11-10.06H106l.37,0,.37,0"/><path class="cls-13" d="M105.29,122.84l-.11,10.06h-1.34l.11-10.06h1.34"/><path class="cls-13" d="M103.95,122.84l-.11,10.06h-1.25l.1-10.06h1.26"/><path class="cls-13" d="M102.69,122.8l-.1,10.06-.3,0-.3,0-.3,0-.3,0,.1-10.06.3,0,.3,0,.3,0,.3,0"/><path class="cls-13" d="M101.5,122.72l-.1,10.06-.29,0-.29,0-.29,0-.29,0,.1-10.06.29,0,.29,0,.29,0,.29,0"/><path class="cls-13" d="M100.34,122.61l-.1,10.06-.28,0-.28,0-.28,0-.28,0,.1-10.06.28,0,.28,0,.28,0,.29,0"/><path class="cls-13" d="M99.21,122.46l-.1,10.06-.28,0-.28,0-.28,0-.28-.05.09-10.06.28.05.28,0,.28,0,.28,0"/><path class="cls-13" d="M98.08,122.27,98,132.33l-.29-.05-.29-.06-.28-.06-.28-.06L96.94,122l.28.06.28.06.29.06.29.05"/><path class="cls-13" d="M96.94,122l-.09,10.06-.3-.07-.3-.07-.29-.07-.29-.08.09-10.06.29.08.29.07.3.07.3.07"/><path class="cls-13" d="M95.76,121.75l-.09,10.06-.33-.09-.32-.1-.32-.1-.31-.1.08-10.05.31.1.32.1.32.09.33.09"/><path class="cls-13" d="M94.48,121.36l-.08,10.05-.38-.13-.38-.14-.37-.14-.36-.15.08-10,.36.15.37.14.38.14.38.13"/><path class="cls-13" d="M93,120.81l-.08,10-.09,0-.09,0-.08,0-.08,0,.08-10,.08,0,.09,0,.09,0,.09,0"/></g><path class="cls-13" d="M93.67,56.36a24.06,24.06,0,0,1,5-1.29,36.88,36.88,0,0,1,11.44.11,24.32,24.32,0,0,1,5,1.39l65.83,27a11.78,11.78,0,0,1,3.64,2.19A4,4,0,0,1,186,88.21a3.25,3.25,0,0,1-.93,2.47,9.15,9.15,0,0,1-3.29,2.16l-66,28a24.09,24.09,0,0,1-5.41,1.51,36.9,36.9,0,0,1-12.35-.12,24.33,24.33,0,0,1-5.4-1.61L26.81,91.39a9.32,9.32,0,0,1-3.28-2.22,3.29,3.29,0,0,1-.92-2.49A3.93,3.93,0,0,1,24,84.22a11.58,11.58,0,0,1,3.65-2.12Z"/><g class="cls-16"><g class="cls-17"><path class="cls-13" d="M186.43,90.24c-1.17-9.47,0-22.5,0-33.41V54.67H114.22v1.08H95.9v1.08H93.74l-2.16-2.16h-69v19.4c0,2.53-.7,6.21,0,8.62.13.47,1.61,1.22,1.62,1.35,0,.75-1,.25-1.08,1.08a27.71,27.71,0,0,0-.54,4v34.49H186.43C186.43,112.8,187.77,101,186.43,90.24Z"/></g></g></g><path class="cls-18" d="M186.06,78.84a2.79,2.79,0,0,1-.08.58h0a3.12,3.12,0,0,1-.2.57h0a3.76,3.76,0,0,1-.33.56h0a4.82,4.82,0,0,1-.46.55h0a6.31,6.31,0,0,1-.58.53h0a8.3,8.3,0,0,1-.72.51h0c-.25.16-.53.32-.83.48l0,0c-.3.15-.62.31-1,.45l-66,28c-.47.2-1,.38-1.47.55l-.47.15q-.56.17-1.13.32l-.53.13q-.65.15-1.32.27l-.37.07c-.57.1-1.16.18-1.75.25l-1.36.13h-.05q-.75.06-1.52.08h0q-.77,0-1.54,0h0q-.78,0-1.55,0h0q-.78,0-1.54-.11h0q-.76-.07-1.51-.17h0q-.75-.1-1.49-.24h0q-.73-.14-1.44-.3h0q-.7-.17-1.37-.36h0q-.66-.19-1.28-.42l-.06,0c-.42-.15-.82-.31-1.21-.49L26.81,81.69a12.5,12.5,0,0,1-1.84-1,7.33,7.33,0,0,1-1.31-1.09,4.29,4.29,0,0,1-.79-1.15,2.94,2.94,0,0,1-.27-1.18c0,3.26.06,4.15.09,7.41a3,3,0,0,0,.27,1.2A4.33,4.33,0,0,0,23.74,87,7.34,7.34,0,0,0,25,88.13a12.42,12.42,0,0,0,1.84,1l65.68,29.52.08,0,.08,0,.09,0,.09,0,.36.15.37.14.14.05.05,0,.18.07.38.13.31.1.32.1.08,0h0l.21.06.33.09.29.08.29.07.24.06h.05l.3.07.28.06.28.06.29.06.25,0h0l.28.05.28,0,.28,0,.28,0,.28,0h.08l.2,0,.28,0,.28,0,.29,0,.29,0,.16,0h.13l.29,0,.3,0,.3,0,.3,0h3.64l.37,0,.37,0,.47,0h.14l.33,0,.46,0,.46,0h.1c.56-.06,1.11-.14,1.64-.23l.1,0h.08l.29-.06q.67-.12,1.32-.28l.24-.05.29-.08c.39-.1.76-.21,1.13-.32l.32-.09.15-.06c.51-.17,1-.35,1.46-.55l65.86-28.29.06,0,.06,0,.06,0,.06,0,.32-.15.3-.15.1-.05,0,0,.14-.07.28-.16.21-.13.19-.12h0l.2-.13.19-.13.16-.12.15-.12h0l.12-.1.14-.12.12-.11.12-.11.08-.09h0l0,0,.11-.12.1-.11.09-.11.09-.11.05-.07h0l0,0,.08-.11.07-.11.07-.11.06-.12,0-.08h0v0l.05-.12,0-.12,0-.12,0-.12,0-.07h0v0l0-.12,0-.12v-.31h0Z"/><path class="cls-19" d="M93.54,47.22a24.06,24.06,0,0,1,5-1.29A36.88,36.88,0,0,1,110,46a24.32,24.32,0,0,1,5,1.39l65.83,27a11.78,11.78,0,0,1,3.64,2.19,4,4,0,0,1,1.38,2.48,3.25,3.25,0,0,1-.93,2.47,9.15,9.15,0,0,1-3.29,2.16l-66,28a24.09,24.09,0,0,1-5.41,1.51,36.9,36.9,0,0,1-12.35-.12,24.33,24.33,0,0,1-5.4-1.61L26.67,82.25A9.32,9.32,0,0,1,23.39,80a3.29,3.29,0,0,1-.92-2.49,3.93,3.93,0,0,1,1.39-2.45A11.58,11.58,0,0,1,27.52,73Z"/><path class="cls-20" d="M104.59,114.11h-.37a36.21,36.21,0,0,1-6.24-.58,24.62,24.62,0,0,1-5.49-1.64L26.65,82.61a9.69,9.69,0,0,1-3.42-2.32,3.7,3.7,0,0,1-1-2.79,4.29,4.29,0,0,1,1.51-2.71,12,12,0,0,1,3.78-2.2l66-25.74a24.33,24.33,0,0,1,5.13-1.32,37.27,37.27,0,0,1,11.57.11,24.58,24.58,0,0,1,5.12,1.41l65.83,27a12.15,12.15,0,0,1,3.76,2.27,4.35,4.35,0,0,1,1.5,2.73,3.66,3.66,0,0,1-1,2.77A9.52,9.52,0,0,1,182,84.07l-66,28a24.35,24.35,0,0,1-5.5,1.53A35.91,35.91,0,0,1,104.59,114.11ZM93.82,47.59l-66,25.74a11.18,11.18,0,0,0-3.53,2A3.54,3.54,0,0,0,23,77.58a2.9,2.9,0,0,0,.83,2.19A8.93,8.93,0,0,0,27,81.9l65.84,29.27a23.83,23.83,0,0,0,5.32,1.58,36.5,36.5,0,0,0,12.22.11,23.61,23.61,0,0,0,5.32-1.48l66-28a8.77,8.77,0,0,0,3.15-2.06,2.86,2.86,0,0,0,.84-2.17,3.6,3.6,0,0,0-1.25-2.23,11.39,11.39,0,0,0-3.52-2.11l-65.83-27a23.8,23.8,0,0,0-5-1.37,36.5,36.5,0,0,0-11.31-.11,23.56,23.56,0,0,0-5,1.27Z"/><path class="cls-21" d="M133,72.35c9.05,9.13-.67,21.73-28.06,21.73S66.57,81.48,74.72,72.35c5.12-5.74,17.3-9,28.69-9S127.31,66.6,133,72.35Z"/><path class="cls-22" d="M130.06,76.4c9.26,6.39-.14,17.67-25.12,17.67-23.62,0-35.33-11.28-26.86-17.67,5-3.74,13.79-5.8,25.49-5.8C112.91,70.6,124.64,72.66,130.06,76.4Z"/><path class="cls-23" d="M105.2,94.66c-20,0-29.95-6.39-32.63-12.37-1.57-3.5-.87-7.17,2-10.34,5.69-6.38,18.73-9.24,29.13-9.24s23.7,2.85,30,9.21c3.31,3.34,4.29,7.19,2.77,10.85C134,88.52,124.58,94.66,105.2,94.66ZM103.66,63.9c-12,0-23.61,3.64-28.25,8.84-2.5,2.81-3.13,6-1.76,9.08,2.41,5.38,12.12,11.67,31.55,11.67,18.81,0,27.91-5.77,30.16-11.16,1.33-3.19.44-6.59-2.51-9.56h0C127.67,67.54,115.67,63.9,103.66,63.9Z"/><path class="cls-24" d="M121.19,74c5.34,4.66-.39,11.09-16.56,11.09S82,78.68,86.8,74c3-2.93,10.21-4.61,16.93-4.61S117.83,71.09,121.19,74Z"/><ellipse class="cls-25" cx="32.45" cy="78.23" rx="4.42" ry="2.85"/><ellipse class="cls-26" cx="32.59" cy="60.34" rx="6.82" ry="1.99"/><ellipse class="cls-27" cx="32.59" cy="53.24" rx="6.82" ry="1.99"/><ellipse class="cls-28" cx="32.59" cy="46.14" rx="6.82" ry="1.99"/><ellipse class="cls-29" cx="32.45" cy="78.23" rx="2.24" ry="1.44"/><rect class="cls-30" x="32.03" y="47.92" width="1.12" height="31.29"/><ellipse class="cls-25" cx="176.29" cy="78.4" rx="4.42" ry="2.85"/><ellipse class="cls-31" cx="176.43" cy="60.5" rx="6.82" ry="1.99"/><ellipse class="cls-32" cx="176.43" cy="53.41" rx="6.82" ry="1.99"/><ellipse class="cls-33" cx="176.43" cy="46.31" rx="6.82" ry="1.99"/><ellipse class="cls-29" cx="176.29" cy="78.4" rx="2.24" ry="1.44"/><rect class="cls-34" x="175.87" y="48.09" width="1.12" height="31.29"/><g class="cls-2"><g class="cls-2"><g class="cls-35"><g class="cls-2"><path class="cls-36" d="M74.69,8.34,71.3,7.2h0l3.4,1.14h0"/><path class="cls-37" d="M74.71,8.34,71.32,7.2a6,6,0,0,1,1,.06l3.4,1.14a6,6,0,0,0-1-.06"/><path class="cls-38" d="M75.73,8.4l-3.4-1.14a5.76,5.76,0,0,1,.9.2l3.4,1.14a5.76,5.76,0,0,0-.9-.2"/><path class="cls-39" d="M76.63,8.61l-3.4-1.14.12,0,3.4,1.14-.12,0"/></g></g></g><path class="cls-40" d="M65.88,3.43c.24-.05.47-.09.7-.13l.22,0,.5,0h.84l.34,0,.23,0a6.93,6.93,0,0,1,1,.22l.22.06L66.5,2.45l-.14,0-.07,0a6.94,6.94,0,0,0-1-.22h0l-.18,0-.34,0h-.84l-.5,0-.22,0c-.23,0-.47.07-.71.13h0l-.62.17a10.35,10.35,0,0,0-2.15,1l3.4,1.14a10.34,10.34,0,0,1,2.15-1l.62-.17Z"/><path class="cls-41" d="M56.12,1.2l.51,0h.84l.34,0,.23,0a7,7,0,0,1,1,.22l.21.06L55.82.36l-.14,0-.07,0a7,7,0,0,0-1-.22h0l-.19,0-.34,0h-.84l-.51,0-.22,0c-.24,0-.48.07-.72.13h0l-.62.17a9.62,9.62,0,0,0-.92.34L50,.83q-.34.16-.68.34l-.24.13c-.29.17-.57.35-.85.54l-.12.09q-.36.26-.7.54l-.24.2q-.31.27-.61.56l-.18.17c-.23.23-.45.47-.66.72l-.05.07-.2.25c-.17.21-.34.42-.5.64l-.24.33-.23.32-.12.19q-.33.51-.62,1l-.12.2,0,.07q-.33.63-.61,1.28l0,0c0,.09-.06.18-.1.26-.14.33-.27.67-.38,1l-.05.13c0,.11-.06.23-.1.34-.09.3-.18.6-.26.9,0,.08,0,.15-.07.23s0,.18-.05.28c-.08.34-.14.68-.2,1,0,.1,0,.21-.06.31s0,.16,0,.24,0,.24,0,.36q0,.43-.07.87c0,.11,0,.22,0,.33s0,.11,0,.16q0,.52,0,1c0,.27,0,.53,0,.79s.05.52.08.77l-.16.18c-.07.08-.12.17-.19.25-.24.29-.46.59-.68.9l-.15.19c-.06.1-.12.2-.18.3s-.25.41-.37.62-.12.18-.17.28-.1.22-.16.32l-.26.54c0,.1-.1.19-.14.29s-.1.27-.15.4-.14.34-.2.52l-.09.24c-.05.16-.09.33-.14.5s-.11.35-.15.53l-.05.19c0,.17-.07.35-.1.53s-.09.43-.13.64c0,.06,0,.11,0,.17,0,.32-.08.65-.11,1,0,.07,0,.14,0,.21s0,.28,0,.43,0,.56,0,.84c.13,4,2.08,7,4.81,7.9l3.4,1.14c-2.73-.92-4.68-3.87-4.81-7.9,0-.42,0-.84,0-1.27,0-.07,0-.14,0-.21,0-.38.08-.76.14-1.14,0-.22.08-.43.13-.64s.1-.48.16-.71.1-.36.15-.53.15-.5.24-.74.13-.35.2-.52.19-.46.29-.69l.26-.54q.15-.31.32-.61t.37-.62l.32-.49c.21-.31.44-.61.68-.9s.23-.3.35-.43c-.07-.51-.11-1-.13-1.56s0-.8,0-1.2c0-.11,0-.22,0-.33q0-.44.07-.87c0-.12,0-.24,0-.36s.06-.37.09-.55c.06-.35.12-.69.2-1,0-.17.08-.34.12-.51s.17-.6.26-.9.1-.32.15-.47c.12-.34.25-.68.38-1l.12-.3c.19-.44.39-.87.61-1.28l.15-.27q.3-.54.62-1l.34-.52.24-.33c.16-.22.33-.43.5-.64l.2-.25q.35-.41.72-.79L50,4.39q.3-.29.61-.56l.24-.2q.34-.29.7-.54L51.62,3c.28-.2.56-.37.85-.54l.24-.13q.33-.18.68-.34l.26-.12a9.59,9.59,0,0,1,.92-.34l.62-.17c.24-.06.48-.1.72-.13Z"/><path class="cls-42" d="M54.56,1.51a7.3,7.3,0,0,1,8.53,3,10.35,10.35,0,0,1,2.15-1c4.12-1.26,7.75.77,9.45,4.74,3.76-.12,6.71,3.21,6.87,8.19.18,5.74-3.4,11.59-8,13L50.06,36.74c-4.57,1.4-8.46-2.15-8.64-7.9a14.82,14.82,0,0,1,3.63-10c-.07-.51-.11-1-.13-1.56C44.69,10.25,49,3.22,54.56,1.51Z"/></g><line class="cls-1" x1="53.54" y1="62.49" x2="83.54" y2="50.49"/></g></g></svg>