<?xml version="1.0" encoding="utf-8"?>
<!-- Generator: Adobe Illustrator 21.0.0, SVG Export Plug-In . SVG Version: 6.00 Build 0)  -->
<svg version="1.1" id="图层_1" xmlns="http://www.w3.org/2000/svg" xmlns:xlink="http://www.w3.org/1999/xlink" x="0px" y="0px"
	 viewBox="0 0 86.7 117.8" style="enable-background:new 0 0 86.7 117.8;" xml:space="preserve">
<style type="text/css">
	.st0{fill:url(#SVGID_1_);}
	.st1{fill:url(#SVGID_2_);}
	.st2{fill:url(#SVGID_3_);}
	.st3{fill:url(#SVGID_4_);}
	.st4{fill:url(#SVGID_5_);}
	.st5{fill:url(#SVGID_6_);}
	.st6{fill:url(#SVGID_7_);}
	.st7{fill:url(#SVGID_8_);}
	.st8{fill:url(#SVGID_9_);}
	.st9{fill:url(#SVGID_10_);}
	.st10{fill:url(#SVGID_11_);}
	.st11{fill:url(#SVGID_12_);}
	.st12{fill:url(#SVGID_13_);}
	.st13{fill:url(#SVGID_14_);}
	.st14{fill:url(#SVGID_15_);}
	.st15{fill:url(#SVGID_16_);}
	.st16{fill:url(#SVGID_17_);}
	.st17{fill:none;stroke:#FFFFFF;stroke-width:0.5;stroke-miterlimit:10;}
	.st18{fill:url(#SVGID_18_);}
	.st19{fill:url(#SVGID_19_);}
	.st20{fill:url(#SVGID_20_);}
	.st21{fill:url(#SVGID_21_);}
	.st22{fill:url(#SVGID_22_);}
	.st23{fill:#011554;}
	.st24{font-family:'MicrosoftYaHei-Bold';}
	.st25{font-size:18.95px;}
	.st26{fill:url(#SVGID_23_);}
	.st27{fill:#FFFFFF;}
</style>
<title>练习</title>
<linearGradient id="SVGID_1_" gradientUnits="userSpaceOnUse" x1="60.2294" y1="39.6991" x2="118.0294" y2="3.0091" gradientTransform="matrix(1 0 0 -1 0 117.73)">
	<stop  offset="0" style="stop-color:#83BBFF"/>
	<stop  offset="0.33" style="stop-color:#4E63C5"/>
	<stop  offset="0.54" style="stop-color:#5354D4"/>
	<stop  offset="1" style="stop-color:#3153C5"/>
</linearGradient>
<polygon class="st0" points="62.8,78.2 62.6,87 67.9,84.3 68.1,75.6 "/>
<linearGradient id="SVGID_2_" gradientUnits="userSpaceOnUse" x1="14.0604" y1="41.2107" x2="94.4204" y2="-9.8094" gradientTransform="matrix(1 0 0 -1 0 117.73)">
	<stop  offset="0" style="stop-color:#83BBFF"/>
	<stop  offset="0.33" style="stop-color:#4E63C5"/>
	<stop  offset="0.54" style="stop-color:#5354D4"/>
	<stop  offset="1" style="stop-color:#3153C5"/>
</linearGradient>
<polygon class="st1" points="18.4,84.1 23.8,86.7 24,78 18.5,75.3 "/>
<linearGradient id="SVGID_3_" gradientUnits="userSpaceOnUse" x1="12.1193" y1="15.7688" x2="69.9093" y2="-20.9112" gradientTransform="matrix(1 0 0 -1 0 117.73)">
	<stop  offset="0" style="stop-color:#83BBFF"/>
	<stop  offset="0.33" style="stop-color:#4E63C5"/>
	<stop  offset="0.54" style="stop-color:#5354D4"/>
	<stop  offset="1" style="stop-color:#3153C5"/>
</linearGradient>
<polygon class="st2" points="14.5,110.9 19.8,108.3 19.9,99.5 14.7,102.2 "/>
<linearGradient id="SVGID_4_" gradientUnits="userSpaceOnUse" x1="7.8866" y1="49.3965" x2="92.6466" y2="15.5665" gradientTransform="matrix(1 0 0 -1 0 117.73)">
	<stop  offset="0" style="stop-color:#83BBFF"/>
	<stop  offset="0.33" style="stop-color:#4E63C5"/>
	<stop  offset="0.54" style="stop-color:#5354D4"/>
	<stop  offset="1" style="stop-color:#3153C5"/>
</linearGradient>
<path class="st3" d="M25.2,86.2l1.1-0.4l0.4-0.1l1.2-0.3l0.2-0.1l1.4-0.4l0.4-0.1l1.2-0.3l0.4-0.1l1.5-0.3h0.3l1.3-0.2l0.4-0.1
	l1.7-0.2h0.1l1.6-0.1h0.5l1-0.1h0.5h1.3h1.9h1h0.2c0.8,0,1.6,0,2.4,0.1h0.3c0.8,0.1,1.5,0.1,2.3,0.2h0.3c0.8,0.1,1.5,0.2,2.3,0.3
	h0.2c0.8,0.1,1.5,0.3,2.3,0.4l0.5,0.1l0.7,0.2l0.6,0.1l0.7,0.2l0.5,0.1l0.8,0.2l0.5,0.1l0.8,0.3l0.4,0.1l0.8,0.3l0.4,0.1l1.2,0.4
	l0.2-8.7l-1.2-0.4l-0.4-0.1l-0.8-0.3h-0.1l-0.3-0.1L59.2,77l-0.5-0.1l-0.8-0.2l-0.3-0.1l-0.2-0.1l-0.7-0.2l-0.6-0.1L55.4,76L55,75.9
	h-0.1c-0.7-0.2-1.5-0.3-2.3-0.4h-0.2h-0.1c-0.7-0.1-1.5-0.2-2.3-0.3H50h-0.1c-0.8-0.1-1.5-0.2-2.3-0.2h-0.3
	c-0.8-0.1-1.6-0.1-2.4-0.1h-0.2h-1h-1.8h-1.3H40l-1,0.1h-0.3h-0.2L36.9,75h-0.1l-1.7,0.2H35h-0.2l-1.3,0.2h-0.3l-1.5,0.3l-0.4,0.1
	L30.1,76l-0.4,0.1l-1.4,0.4l0,0l-0.2,0.1l-1.2,0.3L26.5,77l-1.1,0.4l-0.2,0.1h-0.1L23.9,78l-0.2,8.7l1.1-0.4L25.2,86.2z"/>
<linearGradient id="SVGID_5_" gradientUnits="userSpaceOnUse" x1="9.1304" y1="52.5011" x2="93.8804" y2="18.6611" gradientTransform="matrix(1 0 0 -1 0 117.73)">
	<stop  offset="0" style="stop-color:#83BBFF"/>
	<stop  offset="0.33" style="stop-color:#4E63C5"/>
	<stop  offset="0.54" style="stop-color:#5354D4"/>
	<stop  offset="1" style="stop-color:#3153C5"/>
</linearGradient>
<path class="st4" d="M74.4,99.3l0.2-8.7c0.1-3.5-2.3-7.1-7.1-10l-0.2,8.7C72.1,92.2,74.5,95.8,74.4,99.3z"/>
<linearGradient id="SVGID_6_" gradientUnits="userSpaceOnUse" x1="2.137" y1="34.9721" x2="86.887" y2="1.1421" gradientTransform="matrix(1 0 0 -1 0 117.73)">
	<stop  offset="0" style="stop-color:#83BBFF"/>
	<stop  offset="0.33" style="stop-color:#4E63C5"/>
	<stop  offset="0.54" style="stop-color:#5354D4"/>
	<stop  offset="1" style="stop-color:#3153C5"/>
</linearGradient>
<path class="st5" d="M82.1,91.3c0,0.1,0,0.3,0,0.4s0,0.3-0.1,0.4s-0.1,0.3-0.1,0.4s-0.1,0.3-0.1,0.4s-0.1,0.3-0.1,0.4
	s-0.1,0.3-0.1,0.4l-0.1,0.4l-0.2,0.4l-0.2,0.4L81,95.2l-0.2,0.4L80.5,96l-0.3,0.4L80,96.7l-0.3,0.4l-0.3,0.4l-0.4,0.4l-0.3,0.3
	l-0.4,0.4L78.1,99c-0.2,0.2-0.5,0.4-0.7,0.7l-0.1,0.1c-0.3,0.3-0.6,0.5-0.9,0.8l-0.8,0.6l-0.2,0.1l-0.7,0.5l-0.3,0.2l-0.9,0.6
	L68,99.8l-0.1,5.3l-0.8,0.3l-0.5,0.2l-1.4,0.5l-0.3,0.1c-0.6,0.2-1.2,0.4-1.8,0.5l-0.5,0.1l-1.4,0.4l-0.5,0.1
	c-0.6,0.1-1.2,0.3-1.8,0.4h-0.1c-0.6,0.1-1.3,0.2-1.9,0.3l-0.6,0.1l-1.5,0.2l-0.5,0.1c-0.7,0.1-1.4,0.2-2.1,0.2h-0.4l-1.8,0.2h-0.6
	l-1.2,0.2h-0.6l-1.8,0.1h-2.3h-1.2h-0.8h-0.8H40l-0.8-0.1l-0.9-0.1l-0.7-0.1l-0.9-0.1l-0.7-0.1l-1-0.1l-0.6-0.1l-1.2-0.2l-0.4-0.1
	l-1.3-0.2h-0.3l-1.6-0.3l-1.6-0.3l-0.5-0.1l-1.1-0.3l-0.3-0.1l-1.3-0.4l-0.6-0.2l-1-0.3l-0.6-0.2l-1.2-0.4l-0.5-0.2
	c-0.5-0.2-1.1-0.4-1.6-0.7l-0.2,8.7c0.5,0.2,1.1,0.4,1.6,0.7l0.5,0.2l1.2,0.4l0.3,0.1l0.3,0.1l1,0.3l0.6,0.2l1.3,0.4l0.3,0.1l0,0
	l1.1,0.3l0.5,0.1l1.6,0.3l0,0l1.6,0.3h0.3l1.3,0.2l0,0l0.5,0l1.2,0.2l0.6,0.1l0.9,0.1h0.1l0.7,0.1l0.9,0.1l0.7,0.1l0.8,0.1H39
	l0.8,0.1h0.8h0.8h0.7h0.1h1.2h2.3l1.8-0.1h0.6l1.2-0.1h0.3H50l1.8-0.2h0.4c0.7-0.1,1.4-0.1,2.1-0.2h0.2l0.3-0.1l1.5-0.2l0.6-0.1
	c0.6-0.1,1.3-0.2,1.9-0.3h0.1c0.6-0.1,1.2-0.3,1.8-0.4L61,116l1.4-0.4l0.3-0.1h0.1c0.6-0.2,1.2-0.3,1.8-0.5l0.3-0.1l1.4-0.5l0.3-0.1
	l0.2-0.1c0.6-0.2,1.2-0.4,1.7-0.7l0.1-4.5l4.5,2.2l0,0l0.9-0.6l0.3-0.2l0.7-0.5l0.2-0.1l0.7-0.5h0.1c0.3-0.3,0.6-0.5,0.9-0.8
	l0.1-0.1c0.3-0.2,0.5-0.4,0.7-0.7l0.1-0.1l0.2-0.2l0.4-0.4l0.3-0.3l0.4-0.4l0.1-0.1l0.2-0.2l0.3-0.4l0.3-0.4l0.3-0.4l0.1-0.2
	l0.1-0.2l0.2-0.4l0.2-0.4l0.2-0.4l0.1-0.2l0.1-0.2l0.1-0.4c0-0.1,0.1-0.3,0.1-0.4s0.1-0.3,0.1-0.4v-0.2c0-0.1,0-0.2,0-0.2
	s0.1-0.3,0.1-0.4s0-0.3,0.1-0.4s0-0.3,0-0.4s0-0.1,0-0.2s0-0.3,0-0.4l0.2-8.7C82.1,90.9,82.1,91.1,82.1,91.3z"/>
<linearGradient id="SVGID_7_" gradientUnits="userSpaceOnUse" x1="1.8129" y1="34.1823" x2="86.5729" y2="0.3523" gradientTransform="matrix(1 0 0 -1 0 117.73)">
	<stop  offset="0" style="stop-color:#83BBFF"/>
	<stop  offset="0.33" style="stop-color:#4E63C5"/>
	<stop  offset="0.54" style="stop-color:#5354D4"/>
	<stop  offset="1" style="stop-color:#3153C5"/>
</linearGradient>
<path class="st6" d="M12.7,97.4c0-0.1,0-0.2,0-0.3s0-0.2,0.1-0.4s0-0.2,0.1-0.3s0.1-0.2,0.1-0.3l0.1-0.3l0.1-0.3l0.1-0.3l0.2-0.3
	l0.1-0.3l0.2-0.3l0.2-0.3l0.2-0.3l0.2-0.3l0.3-0.4l0.2-0.2c0.2-0.2,0.3-0.4,0.5-0.6l0,0c0.2-0.2,0.4-0.4,0.6-0.6l0.2-0.2l0.5-0.5
	l0.3-0.2l0.5-0.4l0.3-0.2l0.6-0.4l0.3-0.2c0.3-0.2,0.6-0.4,0.9-0.6l0.2-8.7c-0.3,0.2-0.6,0.4-0.9,0.6L18.3,81l-0.6,0.4l-0.1,0.1
	l-0.1,0.1l-0.5,0.4l-0.3,0.2l-0.5,0.5L16,82.9l0,0c-0.2,0.2-0.4,0.4-0.6,0.6l0,0c-0.2,0.2-0.3,0.4-0.5,0.6l0,0l-0.2,0.2l-0.3,0.4
	L14.3,85l-0.2,0.3v0.1L14,85.6L13.8,86l-0.1,0.3l-0.2,0.3v0.1l-0.1,0.2l-0.1,0.3l-0.1,0.3c0,0.1-0.1,0.2-0.1,0.3v0.1
	c0,0.1,0,0.1,0,0.2s0,0.2-0.1,0.4s0,0.2,0,0.3s0,0.2,0,0.4s0,0.1,0,0.1s0,0.2,0,0.3l-0.2,8.7c0-0.2,0-0.3,0-0.5S12.7,97.5,12.7,97.4
	z"/>
<linearGradient id="SVGID_8_" gradientUnits="userSpaceOnUse" x1="-2.7805" y1="22.6587" x2="81.9695" y2="-11.1713" gradientTransform="matrix(1 0 0 -1 0 117.73)">
	<stop  offset="0" style="stop-color:#83BBFF"/>
	<stop  offset="0.33" style="stop-color:#4E63C5"/>
	<stop  offset="0.54" style="stop-color:#5354D4"/>
	<stop  offset="1" style="stop-color:#3153C5"/>
</linearGradient>
<path class="st7" d="M5.3,89.4l-0.2,8.7c-0.1,4.5,3.1,9.1,9.4,12.8l0.2-8.7C8.3,98.5,5.2,93.9,5.3,89.4z"/>
<linearGradient id="SVGID_9_" gradientUnits="userSpaceOnUse" x1="58.4824" y1="-5.452" x2="42.5124" y2="44.548" gradientTransform="matrix(1 0 0 -1 0 117.73)">
	<stop  offset="0" style="stop-color:#D9EFFF"/>
	<stop  offset="1" style="stop-color:#FFFFFF"/>
</linearGradient>
<path class="st8" d="M62.8,78.2l5.2-2.6c-14.4-6-35.4-6.2-49.5-0.3l5.5,2.7C35.1,73.5,51.4,73.6,62.8,78.2z"/>
<linearGradient id="SVGID_10_" gradientUnits="userSpaceOnUse" x1="81.871" y1="2.0235" x2="65.901" y2="52.0235" gradientTransform="matrix(1 0 0 -1 0 117.73)">
	<stop  offset="0" style="stop-color:#D9EFFF"/>
	<stop  offset="1" style="stop-color:#FFFFFF"/>
</linearGradient>
<path class="st9" d="M72.7,77.9l-5.3,2.6c9.3,5.7,9.5,13.7,0.6,19.3l5.4,2.7C85.3,95.5,85,85.1,72.7,77.9z"/>
<linearGradient id="SVGID_11_" gradientUnits="userSpaceOnUse" x1="27.4968" y1="-15.3446" x2="11.5268" y2="34.6554" gradientTransform="matrix(1 0 0 -1 0 117.73)">
	<stop  offset="0" style="stop-color:#D9EFFF"/>
	<stop  offset="1" style="stop-color:#FFFFFF"/>
</linearGradient>
<path class="st10" d="M19.4,80.3L14,77.6c-11.8,7-11.5,17.4,0.7,24.6l5.3-2.6C10.7,93.9,10.4,85.8,19.4,80.3z"/>
<linearGradient id="SVGID_12_" gradientUnits="userSpaceOnUse" x1="50.8231" y1="-7.9022" x2="34.8531" y2="42.1078" gradientTransform="matrix(1 0 0 -1 0 117.73)">
	<stop  offset="0" style="stop-color:#D9EFFF"/>
	<stop  offset="1" style="stop-color:#FFFFFF"/>
</linearGradient>
<path class="st11" d="M24.6,101.9l-5.3,2.6c14.4,6,35.4,6.2,49.5,0.3l-5.4-2.7C52.3,106.5,36,106.4,24.6,101.9z"/>
<linearGradient id="SVGID_13_" gradientUnits="userSpaceOnUse" x1="21.34" y1="54.9" x2="26.05" y2="54.9" gradientTransform="matrix(1 0 0 -1 0 117.73)">
	<stop  offset="0" style="stop-color:#C2E8FF"/>
	<stop  offset="1" style="stop-color:#61A8FF"/>
</linearGradient>
<path class="st12" d="M23.7,28.3L23.7,28.3c1.3,0,2.4,1.1,2.4,2.4V95c0,1.3-1.1,2.4-2.4,2.4l0,0c-1.3,0-2.4-1.1-2.4-2.4V30.6
	C21.3,29.3,22.4,28.3,23.7,28.3z"/>
<linearGradient id="SVGID_14_" gradientUnits="userSpaceOnUse" x1="40.97" y1="52.15" x2="45.68" y2="52.15" gradientTransform="matrix(1 0 0 -1 0 117.73)">
	<stop  offset="0" style="stop-color:#C2E8FF"/>
	<stop  offset="1" style="stop-color:#61A8FF"/>
</linearGradient>
<path class="st13" d="M43.3,26.7L43.3,26.7c1.3,0,2.4,1.1,2.4,2.4v73c0,1.3-1.1,2.4-2.4,2.4h0c-1.3,0-2.4-1.1-2.4-2.4v-73
	C41,27.8,42,26.7,43.3,26.7z"/>
<linearGradient id="SVGID_15_" gradientUnits="userSpaceOnUse" x1="60.61" y1="56.075" x2="65.32" y2="56.075" gradientTransform="matrix(1 0 0 -1 0 117.73)">
	<stop  offset="0" style="stop-color:#C2E8FF"/>
	<stop  offset="1" style="stop-color:#61A8FF"/>
</linearGradient>
<path class="st14" d="M63,25.9L63,25.9c1.3,0,2.4,1.1,2.4,2.4V95c0,1.3-1.1,2.4-2.4,2.4h0c-1.3,0-2.4-1.1-2.4-2.4V28.3
	C60.6,27,61.7,25.9,63,25.9z"/>
<linearGradient id="SVGID_16_" gradientUnits="userSpaceOnUse" x1="40.97" y1="49.005" x2="45.68" y2="49.005" gradientTransform="matrix(1 0 0 -1 0 117.73)">
	<stop  offset="0" style="stop-color:#C2E8FF"/>
	<stop  offset="1" style="stop-color:#61A8FF"/>
</linearGradient>
<path class="st15" d="M43.3,50.3L43.3,50.3c1.3,0,2.4,1.1,2.4,2.4v32.2c0,1.3-1.1,2.4-2.4,2.4h0c-1.3,0-2.4-1.1-2.4-2.4V52.6
	C41,51.3,42,50.3,43.3,50.3z"/>
<linearGradient id="SVGID_17_" gradientUnits="userSpaceOnUse" x1="106.5894" y1="53.656" x2="13.5194" y2="66.616" gradientTransform="matrix(1 0 0 -1 0 117.73)">
	<stop  offset="0" style="stop-color:#00FFFF"/>
	<stop  offset="1" style="stop-color:#0070FF"/>
</linearGradient>
<path class="st16" d="M78.7,20.4C78.2,11.3,62.9,3.9,44.1,3.9S10,11.3,9.6,20.4l0,0v69.1l0,0c0,0.1,0,0.3,0,0.4
	c0,9.3,15.5,16.9,34.6,16.9s34.6-7.6,34.6-16.9c0-0.1,0-0.3,0-0.4l0,0L78.7,20.4L78.7,20.4z"/>
<line class="st17" x1="13.1" y1="29.9" x2="13.1" y2="99.8"/>
<line class="st17" x1="78.3" y1="25.1" x2="78.3" y2="95"/>
<line class="st17" x1="10.7" y1="29.9" x2="10.7" y2="99.8"/>
<line class="st17" x1="18.6" y1="34.6" x2="18.6" y2="104.5"/>
<line class="st17" x1="24.9" y1="36.1" x2="24.9" y2="106"/>
<line class="st17" x1="35.9" y1="38.5" x2="35.9" y2="108.4"/>
<line class="st17" x1="47.7" y1="38.5" x2="47.7" y2="108.4"/>
<line class="st17" x1="60.2" y1="36.1" x2="60.2" y2="106"/>
<line class="st17" x1="71.2" y1="31.4" x2="71.2" y2="101.3"/>
<line class="st17" x1="75.9" y1="29.9" x2="75.9" y2="99.8"/>
<linearGradient id="SVGID_18_" gradientUnits="userSpaceOnUse" x1="6.7607" y1="105.8928" x2="89.7907" y2="84.7728" gradientTransform="matrix(1 0 0 -1 0 117.73)">
	<stop  offset="0" style="stop-color:#83BBFF"/>
	<stop  offset="0.33" style="stop-color:#4E63C5"/>
	<stop  offset="0.54" style="stop-color:#5354D4"/>
	<stop  offset="1" style="stop-color:#3153C5"/>
</linearGradient>
<ellipse class="st18" cx="44.1" cy="21.3" rx="36.8" ry="17.1"/>
<linearGradient id="SVGID_19_" gradientUnits="userSpaceOnUse" x1="6.7607" y1="110.0728" x2="89.7907" y2="88.9528" gradientTransform="matrix(1 0 0 -1 0 117.73)">
	<stop  offset="0" style="stop-color:#C2E8FF"/>
	<stop  offset="1" style="stop-color:#61A8FF"/>
</linearGradient>
<ellipse class="st19" cx="44.1" cy="17.2" rx="36.8" ry="17.1"/>
<linearGradient id="SVGID_20_" gradientUnits="userSpaceOnUse" x1="14.78" y1="101.57" x2="37.69" y2="101.57" gradientTransform="matrix(1 0 0 -1 0 117.73)">
	<stop  offset="0" style="stop-color:#83BBFF"/>
	<stop  offset="0.33" style="stop-color:#4E63C5"/>
	<stop  offset="0.54" style="stop-color:#5354D4"/>
	<stop  offset="1" style="stop-color:#3153C5"/>
</linearGradient>
<path class="st20" d="M39.8,11.7c0,0,0,0.1,0,0.1l0,0v0.1l0,0L39.7,12l0,0l-0.1,0.1l0,0l-0.1,0.1l0,0l-0.1,0.1l0,0l-0.1,0.1l0,0
	l-0.2,0.1l-11,4.7l-0.2,0.1h-0.1l-0.2,0h-0.1h-0.2h-0.1h-0.3h-0.2h-0.8h-0.3l0,0h-0.3l0,0h-0.3l0,0l-0.2,0l0,0l-0.2-0.1l0,0L24.5,17
	l0,0L24.3,17l-10.9-4.8c-0.1,0-0.2-0.1-0.3-0.2c-0.1-0.1-0.2-0.1-0.2-0.2c-0.1-0.1-0.1-0.1-0.1-0.2c0-0.1,0-0.1,0-0.2
	c0,0.5,0,3.3,0,3.8c0,0.1,0,0.1,0,0.2c0,0.1,0.1,0.1,0.1,0.2c0.1,0.1,0.1,0.1,0.2,0.2c0.1,0.1,0.2,0.1,0.3,0.2l10.9,4.9h0.1h0.1h0.1
	h0.1h0.1h0h0h0h0h2.2h0.3h0.1h0.2h0.1l0.2,0h0l0,0l0.2-0.1l11-4.5l0,0h0.1h0.1l0,0l0,0l0,0l0,0l0,0l0,0l0,0l0,0l0,0l0,0l0,0l0,0l0,0
	l0,0l0,0l0,0l0,0l0,0l0,0l0,0v-0.1l0,0v-0.1l0,0l0,0l0,0L39.8,11.7z"/>
<linearGradient id="SVGID_21_" gradientUnits="userSpaceOnUse" x1="12.6491" y1="105.881" x2="39.7312" y2="105.881" gradientTransform="matrix(1 0 0 -1 0 117.73)">
	<stop  offset="0" style="stop-color:#C2E8FF"/>
	<stop  offset="1" style="stop-color:#61A8FF"/>
</linearGradient>
<path class="st21" d="M24.4,6.5c0.3-0.1,0.6-0.2,0.8-0.2c0.6-0.1,1.3-0.1,1.9,0c0.3,0,0.6,0.1,0.8,0.2L38.9,11
	c0.2,0.1,0.4,0.2,0.6,0.4c0.1,0.1,0.2,0.2,0.2,0.4c0,0.2,0,0.3-0.2,0.4c-0.2,0.2-0.3,0.3-0.6,0.4l-10.9,4.6
	c-0.3,0.1-0.6,0.2-0.9,0.3c-0.7,0.1-1.3,0.1-2,0c-0.3-0.1-0.6-0.1-0.9-0.3l-10.9-4.9c-0.2-0.1-0.4-0.2-0.5-0.4
	c-0.1-0.1-0.2-0.3-0.2-0.4c0-0.2,0.1-0.3,0.2-0.4c0.2-0.2,0.4-0.3,0.6-0.4L24.4,6.5z"/>
<radialGradient id="SVGID_22_" cx="23.69" cy="109.57" r="11.59" gradientTransform="matrix(1 0 0 -1 0 117.73)" gradientUnits="userSpaceOnUse">
	<stop  offset="0" style="stop-color:#09FFFF"/>
	<stop  offset="0.54" style="stop-color:#41C7A5"/>
	<stop  offset="0.79" style="stop-color:#4EF4FA"/>
</radialGradient>
<circle class="st22" cx="26.2" cy="9.6" r="4.7"/>
<text transform="matrix(0.78 -0.22 0 1 40.0196 31.8699)" class="st23 st24 st25">数据</text>
<linearGradient id="SVGID_23_" gradientUnits="userSpaceOnUse" x1="35.6205" y1="118.8605" x2="52.1105" y2="99.2505" gradientTransform="matrix(1 0 0 -1 0 117.73)">
	<stop  offset="0" style="stop-color:#FFFFFF"/>
	<stop  offset="1" style="stop-color:#FFFFFF;stop-opacity:0"/>
</linearGradient>
<path class="st26" d="M27.7,7c-0.1,0-1.4,0.4-1.5,0.4c-1,0.8-1.6,2.1-1.5,3.4c-0.1,0.9,0.2,1.8,0.8,2.5l3.7,18.9l48.7-14.1L76.3,6.3
	L27.7,7z"/>
<text transform="matrix(0.78 -0.22 0 1 41.0798 32.0201)" class="st27 st24 st25">数据</text>
</svg>
