<svg xmlns="http://www.w3.org/2000/svg" xmlns:xlink="http://www.w3.org/1999/xlink" viewBox="0 0 208.12 103.76"><defs><style>.cls-1,.cls-3,.cls-4{fill:none;}.cls-2{isolation:isolate;}.cls-3,.cls-4{stroke-miterlimit:10;stroke-width:2px;}.cls-3,.cls-5{opacity:0.5;}.cls-3{stroke:url(#未命名的渐变_37);}.cls-4{stroke:url(#未命名的渐变_37-2);}.cls-5{mix-blend-mode:multiply;}.cls-6{clip-path:url(#clip-path);}.cls-7{fill:#000930;}.cls-8{clip-path:url(#clip-path-2);}.cls-9{clip-path:url(#clip-path-3);}.cls-10{clip-path:url(#clip-path-4);}.cls-11{clip-path:url(#clip-path-5);}.cls-12{fill:url(#未命名的渐变_56);}.cls-13{fill:url(#未命名的渐变_37-3);}.cls-14{fill:url(#未命名的渐变_45);}.cls-15{fill:#bc8200;}.cls-16{fill:url(#未命名的渐变_22);}.cls-17{fill:url(#未命名的渐变_22-2);}.cls-18{fill:url(#未命名的渐变_22-3);}.cls-19{fill:url(#未命名的渐变_22-4);}.cls-20{fill:url(#未命名的渐变_22-5);}.cls-21{fill:url(#未命名的渐变_22-6);}.cls-22{fill:url(#未命名的渐变_22-7);}.cls-23{fill:url(#未命名的渐变_22-8);}.cls-24{fill:url(#未命名的渐变_22-9);}.cls-25{fill:url(#未命名的渐变_22-10);}.cls-26{fill:url(#未命名的渐变_22-11);}.cls-27{fill:url(#未命名的渐变_22-12);}</style><linearGradient id="未命名的渐变_37" y1="59.77" x2="208.12" y2="59.77" gradientUnits="userSpaceOnUse"><stop offset="0" stop-color="aqua"/><stop offset="1" stop-color="#0070ff"/></linearGradient><linearGradient id="未命名的渐变_37-2" y1="46.18" x2="208.12" y2="46.18" xlink:href="#未命名的渐变_37"/><clipPath id="clip-path"><path class="cls-1" d="M185.83,43.34l-.3,9.75a3,3,0,0,1-.29,1.18,4.29,4.29,0,0,1-.8,1.13,7.24,7.24,0,0,1-1.31,1.06,12.24,12.24,0,0,1-1.83,1l.29-9.78a12.31,12.31,0,0,0,1.83-.95,7.24,7.24,0,0,0,1.31-1.05,4.25,4.25,0,0,0,.8-1.12A2.93,2.93,0,0,0,185.83,43.34Z"/></clipPath><clipPath id="clip-path-2"><path class="cls-1" d="M22.66,51.52l-.09-9.75a2.93,2.93,0,0,0,.27,1.18,4.28,4.28,0,0,0,.79,1.15,7.32,7.32,0,0,0,1.31,1.09,12.48,12.48,0,0,0,1.84,1L26.85,56A12.41,12.41,0,0,1,25,55a7.33,7.33,0,0,1-1.31-1.1,4.32,4.32,0,0,1-.79-1.16A3,3,0,0,1,22.66,51.52Z"/></clipPath><clipPath id="clip-path-3"><path class="cls-1" d="M115.67,75.64l-.14,10a23.81,23.81,0,0,1-5.39,1.52,36.37,36.37,0,0,1-12.31-.11,24,24,0,0,1-5.38-1.62l.08-10A24.3,24.3,0,0,0,97.93,77a36.86,36.86,0,0,0,12.34.12A24.06,24.06,0,0,0,115.67,75.64Z"/></clipPath><clipPath id="clip-path-4"><path class="cls-1" d="M93.56,11.2a24,24,0,0,1,5-1.29A36.83,36.83,0,0,1,110,10a24.28,24.28,0,0,1,5,1.39l65.75,26.94a11.77,11.77,0,0,1,3.63,2.19A4,4,0,0,1,185.82,43a3.24,3.24,0,0,1-.93,2.47,9.14,9.14,0,0,1-3.29,2.16l-65.93,28a24.06,24.06,0,0,1-5.41,1.51A36.86,36.86,0,0,1,97.93,77a24.3,24.3,0,0,1-5.4-1.61L26.78,46.18A9.31,9.31,0,0,1,23.5,44a3.28,3.28,0,0,1-.92-2.49A3.92,3.92,0,0,1,24,39a11.56,11.56,0,0,1,3.65-2.12Z"/></clipPath><clipPath id="clip-path-5"><polyline class="cls-1" points="180.81 38.34 180.81 38.34 182.91 39.38 184.44 40.53 185.41 41.75 185.82 43.01 185.64 44.26 184.88 45.48 183.54 46.61 181.6 47.63 115.67 75.64 113.11 76.52 110.27 77.14 107.23 77.5 104.1 77.6 100.96 77.44 97.93 77.03 95.09 76.35 92.53 75.42 26.78 46.18 24.84 45.13 23.5 43.96 22.75 42.73 22.58 41.48 22.99 40.23 23.97 39.02 25.52 37.9 27.62 36.9 93.56 11.2 95.95 10.44 98.6 9.9 101.42 9.6 104.32 9.51 107.21 9.65 110.03 10.02 112.67 10.6 115.06 11.4 180.81 38.34"/></clipPath><linearGradient id="未命名的渐变_56" x1="35.33" y1="53.85" x2="173.39" y2="53.85" gradientUnits="userSpaceOnUse"><stop offset="0" stop-color="#00aeff"/><stop offset="0.33" stop-color="#0074d5"/><stop offset="0.59" stop-color="#009aff"/><stop offset="1" stop-color="#0037d1"/></linearGradient><linearGradient id="未命名的渐变_37-3" x1="22.43" y1="34.44" x2="185.69" y2="34.44" xlink:href="#未命名的渐变_37"/><linearGradient id="未命名的渐变_45" x1="67.76" y1="92.98" x2="150.39" y2="-42.21" gradientUnits="userSpaceOnUse"><stop offset="0" stop-color="#5effff"/><stop offset="1" stop-color="#0070ff"/></linearGradient><linearGradient id="未命名的渐变_22" x1="31.69" y1="10.31" x2="42.67" y2="10.31" gradientUnits="userSpaceOnUse"><stop offset="0" stop-color="#b2ffff"/><stop offset="0.99" stop-color="#41c7a5"/></linearGradient><linearGradient id="未命名的渐变_22-2" x1="43.46" y1="15.41" x2="48.95" y2="15.41" xlink:href="#未命名的渐变_22"/><linearGradient id="未命名的渐变_22-3" x1="44.24" y1="9.14" x2="48.16" y2="9.14" xlink:href="#未命名的渐变_22"/><linearGradient id="未命名的渐变_22-4" x1="26.98" y1="9.14" x2="30.91" y2="9.14" xlink:href="#未命名的渐变_22"/><linearGradient id="未命名的渐变_22-5" x1="35.61" y1="20.12" x2="42.67" y2="20.12" xlink:href="#未命名的渐变_22"/><linearGradient id="未命名的渐变_22-6" x1="24.63" y1="18.55" x2="34.83" y2="18.55" xlink:href="#未命名的渐变_22"/><linearGradient id="未命名的渐变_22-7" x1="164.26" y1="11.1" x2="175.24" y2="11.1" xlink:href="#未命名的渐变_22"/><linearGradient id="未命名的渐变_22-8" x1="176.03" y1="16.2" x2="181.52" y2="16.2" xlink:href="#未命名的渐变_22"/><linearGradient id="未命名的渐变_22-9" x1="176.81" y1="9.92" x2="180.73" y2="9.92" xlink:href="#未命名的渐变_22"/><linearGradient id="未命名的渐变_22-10" x1="159.55" y1="9.92" x2="163.47" y2="9.92" xlink:href="#未命名的渐变_22"/><linearGradient id="未命名的渐变_22-11" x1="168.18" y1="20.9" x2="175.24" y2="20.9" xlink:href="#未命名的渐变_22"/><linearGradient id="未命名的渐变_22-12" x1="157.2" y1="19.33" x2="167.4" y2="19.33" xlink:href="#未命名的渐变_22"/></defs><title>练习</title><g class="cls-2"><g id="图层_1" data-name="图层 1"><path class="cls-3" d="M90.63,18.91A30.34,30.34,0,0,1,97,17.28a46.5,46.5,0,0,1,14.43.14,30.66,30.66,0,0,1,6.36,1.75l83,34A14.86,14.86,0,0,1,205.38,56a5,5,0,0,1,1.73,3.13,4.09,4.09,0,0,1-1.18,3.12,11.54,11.54,0,0,1-4.15,2.72l-83.24,35.35a30.38,30.38,0,0,1-6.83,1.9A46.53,46.53,0,0,1,96.15,102a30.68,30.68,0,0,1-6.81-2l-83-36.91a11.75,11.75,0,0,1-4.13-2.8A4.15,4.15,0,0,1,1,57.14,5,5,0,0,1,2.77,54a14.6,14.6,0,0,1,4.61-2.68Z"/><path class="cls-4" d="M90.63,5.32A30.34,30.34,0,0,1,97,3.69a46.5,46.5,0,0,1,14.43.14,30.66,30.66,0,0,1,6.36,1.75l83,34a14.86,14.86,0,0,1,4.59,2.76,5,5,0,0,1,1.73,3.13,4.09,4.09,0,0,1-1.18,3.12,11.54,11.54,0,0,1-4.15,2.72L118.55,86.68a30.38,30.38,0,0,1-6.83,1.9,46.53,46.53,0,0,1-15.57-.15,30.68,30.68,0,0,1-6.81-2L6.31,49.5a11.75,11.75,0,0,1-4.13-2.8A4.15,4.15,0,0,1,1,43.55a5,5,0,0,1,1.75-3.1,14.6,14.6,0,0,1,4.61-2.68Z"/><g class="cls-5"><g class="cls-6"><path class="cls-7" d="M185.83,43.34l-.3,9.75v.31l.3-9.75v-.3"/><path class="cls-7" d="M185.8,43.65l-.3,9.75,0,.12,0,.12,0,.12,0,.12.3-9.75,0-.12,0-.12,0-.12,0-.12"/><path class="cls-7" d="M185.69,44.13l-.3,9.75,0,.12,0,.12-.05.12-.06.12.3-9.76.06-.12.05-.12,0-.12,0-.12"/><path class="cls-7" d="M185.5,44.59l-.3,9.76-.06.11-.07.11-.07.11-.08.11.29-9.76.08-.11.07-.11.07-.11.06-.11"/><path class="cls-7" d="M185.23,45l-.29,9.76-.08.11-.09.11-.09.11-.1.11.29-9.77.1-.11.09-.11.09-.11.08-.11"/><path class="cls-7" d="M184.87,45.49l-.29,9.77-.11.12-.11.12-.12.11-.12.11.29-9.77.12-.11.12-.11.11-.11.11-.11"/><path class="cls-7" d="M184.41,45.95l-.29,9.77-.14.12-.14.12-.15.12-.16.12.29-9.77.16-.12.15-.12.15-.12.14-.12"/><path class="cls-7" d="M183.82,46.42l-.29,9.77-.19.13-.2.13-.2.13-.21.13.29-9.78.21-.13.2-.13.2-.13.19-.13"/><path class="cls-7" d="M183,46.93l-.29,9.78-.28.16-.29.15-.3.15-.32.15.29-9.78.32-.15.3-.15.29-.15.28-.15"/><path class="cls-7" d="M181.83,47.53l-.29,9.78-.06,0-.06,0-.06,0-.06,0,.29-9.78.06,0,.06,0,.06,0,.06,0"/></g><g class="cls-8"><path class="cls-7" d="M26.78,46.18,26.85,56A12.41,12.41,0,0,1,25,55a7.33,7.33,0,0,1-1.31-1.1,4.32,4.32,0,0,1-.79-1.16,3,3,0,0,1-.27-1.19l-.09-9.75a2.93,2.93,0,0,0,.27,1.18,4.28,4.28,0,0,0,.79,1.15,7.32,7.32,0,0,0,1.31,1.09,12.48,12.48,0,0,0,1.84,1"/></g><polygon class="cls-7" points="181.6 47.63 181.31 57.42 115.54 85.67 115.67 75.64 181.6 47.63"/><polygon class="cls-7" points="92.53 75.42 92.45 85.45 26.85 55.97 26.78 46.18 92.53 75.42"/><g class="cls-9"><path class="cls-7" d="M115.67,75.64l-.14,10c-.51.22-1.05.42-1.61.61s-1.14.35-1.74.5-1.22.28-1.85.39-1.28.2-1.93.28l.12-10c.66-.07,1.3-.16,1.94-.27s1.25-.24,1.86-.38,1.19-.31,1.75-.49,1.1-.38,1.61-.6"/><path class="cls-7" d="M108.52,77.38l-.12,10-.46,0-.46,0-.47,0-.47,0,.11-10.05.47,0,.47,0,.46,0,.46,0"/><path class="cls-7" d="M106.65,77.54l-.11,10.05-.37,0-.37,0h-.74l.11-10.05h.75l.37,0,.37,0"/><path class="cls-7" d="M105.16,77.6l-.11,10.05h-1.34l.11-10.05h1.34"/><path class="cls-7" d="M103.82,77.6l-.11,10.05h-1.25l.1-10.05h1.25"/><path class="cls-7" d="M102.57,77.56l-.1,10.05-.3,0-.3,0-.3,0-.3,0,.1-10.05.3,0,.3,0,.3,0,.3,0"/><path class="cls-7" d="M101.37,77.48l-.1,10.05-.29,0-.29,0-.29,0-.29,0,.1-10.05.29,0,.29,0,.29,0,.29,0"/><path class="cls-7" d="M100.22,77.37l-.1,10.05-.28,0-.28,0-.28,0-.28,0,.1-10,.28,0,.28,0,.28,0,.28,0"/><path class="cls-7" d="M99.08,77.22l-.1,10-.28,0-.28,0-.28,0-.28-.05L98,77l.28.05.28,0,.28,0,.28,0"/><path class="cls-7" d="M98,77l-.09,10L97.58,87,97.29,87,97,86.91l-.28-.06.09-10,.28.06.28.06.29.06L98,77"/><path class="cls-7" d="M96.82,76.8l-.09,10-.3-.07-.29-.07-.29-.07-.29-.08.09-10,.29.08.29.07.3.07.3.07"/><path class="cls-7" d="M95.64,76.51l-.09,10-.32-.09-.32-.1-.32-.1-.31-.1.08-10,.31.1.32.1.32.09.33.09"/><path class="cls-7" d="M94.36,76.12l-.08,10L93.9,86l-.38-.14-.37-.14-.36-.15.08-10,.36.15.37.14L94,76l.38.13"/><path class="cls-7" d="M92.87,75.57l-.08,10-.09,0-.09,0-.08,0-.08,0,.08-10,.08,0,.09,0,.09,0,.09,0"/></g><path class="cls-7" d="M93.56,11.2a24,24,0,0,1,5-1.29A36.83,36.83,0,0,1,110,10a24.28,24.28,0,0,1,5,1.39l65.75,26.94a11.77,11.77,0,0,1,3.63,2.19A4,4,0,0,1,185.82,43a3.24,3.24,0,0,1-.93,2.47,9.14,9.14,0,0,1-3.29,2.16l-65.93,28a24.06,24.06,0,0,1-5.41,1.51A36.86,36.86,0,0,1,97.93,77a24.3,24.3,0,0,1-5.4-1.61L26.78,46.18A9.31,9.31,0,0,1,23.5,44a3.28,3.28,0,0,1-.92-2.49A3.92,3.92,0,0,1,24,39a11.56,11.56,0,0,1,3.65-2.12Z"/><g class="cls-10"><g class="cls-11"><path class="cls-7" d="M186.2,45c-1.17-9.46,0-22.47,0-33.37V9.51H114.08v1.08H95.78v1.08H93.63L91.47,9.51H22.58V28.89c0,2.52-.7,6.2,0,8.61.13.46,1.61,1.22,1.61,1.35,0,.75-1,.25-1.08,1.08a27.67,27.67,0,0,0-.54,4V78.41H186.2C186.2,67.57,187.53,55.78,186.2,45Z"/></g></g></g><path class="cls-12" d="M185.83,33.65a2.79,2.79,0,0,1-.08.58h0a3.11,3.11,0,0,1-.2.57h0a3.76,3.76,0,0,1-.33.56h0a4.82,4.82,0,0,1-.46.55h0a6.31,6.31,0,0,1-.58.53h0a8.29,8.29,0,0,1-.72.51h0c-.25.16-.53.32-.83.48l0,0c-.3.15-.62.3-1,.45l-65.93,28c-.47.2-1,.38-1.47.54l-.47.15q-.55.17-1.13.32l-.53.13q-.65.15-1.32.27l-.37.07c-.57.1-1.16.18-1.75.25l-1.36.13h-.05q-.75.06-1.52.08h0q-.77,0-1.54,0h0q-.78,0-1.55,0h0q-.77,0-1.54-.11h0q-.76-.07-1.51-.17h0q-.75-.1-1.49-.24h0q-.73-.14-1.44-.3h0q-.7-.17-1.37-.36h0q-.66-.19-1.28-.42l-.06,0c-.42-.15-.82-.31-1.21-.49L26.78,36.5a12.48,12.48,0,0,1-1.84-1,7.32,7.32,0,0,1-1.31-1.09,4.28,4.28,0,0,1-.79-1.15,2.93,2.93,0,0,1-.27-1.18c0,3.25.06,4.15.09,7.4a3,3,0,0,0,.27,1.19,4.32,4.32,0,0,0,.79,1.16A7.33,7.33,0,0,0,25,42.93a12.41,12.41,0,0,0,1.84,1l65.6,29.48.08,0,.08,0,.09,0,.09,0,.36.15.37.14.14.05.05,0,.18.07.38.13.31.1.32.1.08,0h0l.21.06.32.09.29.08.29.07.24.06h.05l.3.07.28.06.28.06.29.06.25,0h0l.28.05.28,0,.28,0,.28,0,.28,0h.08l.2,0,.28,0,.28,0,.29,0,.29,0,.16,0H101l.29,0,.3,0,.3,0,.3,0h3.63l.37,0,.37,0,.47,0h.14l.33,0,.46,0,.46,0h.1c.55-.06,1.1-.14,1.64-.23l.1,0h.08l.29-.06q.67-.12,1.32-.28l.24-.05.29-.08c.39-.1.76-.21,1.13-.32l.32-.09.15-.06c.51-.17,1-.35,1.46-.55l65.78-28.25.06,0,.06,0,.06,0,.06,0,.32-.15.3-.15.1-.05,0,0,.14-.07.28-.16.21-.13.19-.12h0l.2-.13.19-.13.16-.12.15-.12h0l.12-.1.14-.12.12-.11.12-.11.08-.09h0l0,0,.11-.12.1-.11.09-.11.09-.11.05-.07h0l0,0,.08-.11.07-.11.07-.11.06-.11,0-.08h0v0l.05-.12,0-.12,0-.12,0-.12,0-.07h0v0l0-.12,0-.12V41h0Z"/><path class="cls-13" d="M93.42,2.08a24,24,0,0,1,5-1.29,36.83,36.83,0,0,1,11.43.11,24.28,24.28,0,0,1,5,1.39l65.75,26.94a11.77,11.77,0,0,1,3.63,2.19,4,4,0,0,1,1.37,2.48,3.24,3.24,0,0,1-.93,2.47,9.14,9.14,0,0,1-3.29,2.16l-65.93,28A24.06,24.06,0,0,1,110.13,68a36.86,36.86,0,0,1-12.34-.12,24.3,24.3,0,0,1-5.4-1.61L26.64,37.06a9.31,9.31,0,0,1-3.27-2.22,3.28,3.28,0,0,1-.92-2.49,3.92,3.92,0,0,1,1.39-2.45,11.56,11.56,0,0,1,3.65-2.12Z"/><path class="cls-14" d="M104.46,68.88h-.37a36.16,36.16,0,0,1-6.23-.58,24.59,24.59,0,0,1-5.48-1.63L26.62,37.42a9.68,9.68,0,0,1-3.41-2.32,3.69,3.69,0,0,1-1-2.78,4.28,4.28,0,0,1,1.51-2.7,11.93,11.93,0,0,1,3.77-2.2L93.42,1.71A24.3,24.3,0,0,1,98.54.4a37.23,37.23,0,0,1,11.55.11,24.55,24.55,0,0,1,5.12,1.41L181,28.86a12.13,12.13,0,0,1,3.76,2.27,4.34,4.34,0,0,1,1.49,2.73,3.65,3.65,0,0,1-1,2.76,9.51,9.51,0,0,1-3.42,2.26l-65.93,28a24.32,24.32,0,0,1-5.5,1.53A35.87,35.87,0,0,1,104.46,68.88ZM93.7,2.44,27.76,28.15a11.17,11.17,0,0,0-3.52,2A3.54,3.54,0,0,0,23,32.39a2.9,2.9,0,0,0,.83,2.19,8.91,8.91,0,0,0,3.14,2.12L92.69,65.94A23.8,23.8,0,0,0,98,67.52a36.46,36.46,0,0,0,12.2.11,23.58,23.58,0,0,0,5.32-1.48l65.93-28a8.76,8.76,0,0,0,3.15-2.06,2.85,2.85,0,0,0,.83-2.17,3.59,3.59,0,0,0-1.25-2.23,11.38,11.38,0,0,0-3.51-2.11L114.91,2.65a23.77,23.77,0,0,0-5-1.36,36.46,36.46,0,0,0-11.3-.11,23.53,23.53,0,0,0-5,1.27Z"/><path class="cls-15" d="M32.69,20.2S38,22.86,38,26.79V37l3.14-1.57.39-14.52s1-3.42,5.88-5.87c.82-.41-3.24,1-7.29,2.49-.32.11-1.81-4.17-2.12-4.06s.3,4.71-.12,4.87Z"/><circle class="cls-16" cx="37.18" cy="10.31" r="5.49"/><circle class="cls-17" cx="46.2" cy="15.41" r="2.75"/><circle class="cls-18" cx="46.2" cy="9.14" r="1.96"/><circle class="cls-19" cx="28.95" cy="9.14" r="1.96"/><circle class="cls-20" cx="39.14" cy="20.12" r="3.53"/><circle class="cls-21" cx="29.73" cy="18.55" r="5.1"/><path class="cls-15" d="M165.26,21s5.28,2.67,5.28,6.59v10.2l3.14-1.57.39-14.52s1-3.42,5.88-5.87c.82-.41-3.24,1-7.29,2.49-.32.11-1.81-4.17-2.12-4.06s.3,4.71-.12,4.87Z"/><circle class="cls-22" cx="169.75" cy="11.1" r="5.49"/><circle class="cls-23" cx="178.77" cy="16.2" r="2.75"/><circle class="cls-24" cx="178.77" cy="9.92" r="1.96"/><circle class="cls-25" cx="161.51" cy="9.92" r="1.96"/><circle class="cls-26" cx="171.71" cy="20.9" r="3.53"/><circle class="cls-27" cx="162.3" cy="19.33" r="5.1"/></g></g></svg>