<svg id="图层_1" data-name="图层 1" xmlns="http://www.w3.org/2000/svg" xmlns:xlink="http://www.w3.org/1999/xlink" viewBox="0 0 132.58 129.96"><defs><style>.cls-1{opacity:0.9;fill:url(#未命名的渐变_162);}.cls-2{opacity:0.6;fill:url(#未命名的渐变_162-2);}.cls-3{fill:#dcdfff;}.cls-4{opacity:0.5;fill:url(#未命名的渐变_162-3);}.cls-5{fill:url(#未命名的渐变_166);}.cls-6{fill:url(#未命名的渐变_162-4);}.cls-7{fill:url(#未命名的渐变_203);}.cls-8{fill:url(#未命名的渐变_203-2);}.cls-9{fill:url(#未命名的渐变_200);}.cls-10{fill:#d9eeff;}.cls-11{fill:#7bcaff;}.cls-12{fill:url(#未命名的渐变_200-2);}.cls-13{fill:url(#未命名的渐变_248);}.cls-14{isolation:isolate;}.cls-15{fill:url(#未命名的渐变_223);}.cls-16{fill:url(#未命名的渐变_223-2);}.cls-17{fill:url(#未命名的渐变_242);}.cls-18{fill:url(#未命名的渐变_166-2);}.cls-19{fill:url(#未命名的渐变_162-5);}.cls-20{fill:url(#未命名的渐变_265);}.cls-21{fill:url(#未命名的渐变_248-2);}.cls-22{fill:#fff;}.cls-23{fill:#114;}</style><linearGradient id="未命名的渐变_162" x1="6.25" y1="78.01" x2="126.22" y2="78.01" gradientUnits="userSpaceOnUse"><stop offset="0" stop-color="#c2e8ff"/><stop offset="1" stop-color="#61a8ff"/></linearGradient><linearGradient id="未命名的渐变_162-2" x1="6.25" y1="91.23" x2="126.22" y2="91.23" xlink:href="#未命名的渐变_162"/><linearGradient id="未命名的渐变_162-3" x1="6.25" y1="104.95" x2="126.22" y2="104.95" xlink:href="#未命名的渐变_162"/><linearGradient id="未命名的渐变_166" x1="10.47" y1="71.85" x2="122.49" y2="71.85" gradientUnits="userSpaceOnUse"><stop offset="0" stop-color="#83bbff"/><stop offset="0.33" stop-color="#4e63c5"/><stop offset="0.54" stop-color="#5354d4"/><stop offset="1" stop-color="#3153c5"/></linearGradient><linearGradient id="未命名的渐变_162-4" x1="0" y1="54.89" x2="132.47" y2="54.89" xlink:href="#未命名的渐变_162"/><linearGradient id="未命名的渐变_203" x1="19.13" y1="44.57" x2="26.99" y2="53.4" gradientUnits="userSpaceOnUse"><stop offset="0" stop-color="#4f65e3" stop-opacity="0"/><stop offset="1" stop-color="#5c42cf" stop-opacity="0.2"/></linearGradient><linearGradient id="未命名的渐变_203-2" x1="42.15" y1="48.39" x2="44.01" y2="58.8" xlink:href="#未命名的渐变_203"/><linearGradient id="未命名的渐变_200" x1="406.56" y1="570.96" x2="406.16" y2="615.87" gradientTransform="matrix(0.81, -0.29, 0, 1, -293.09, -447.28)" gradientUnits="userSpaceOnUse"><stop offset="0" stop-color="#4f65e3"/><stop offset="1" stop-color="#5c42cf"/></linearGradient><linearGradient id="未命名的渐变_200-2" x1="417.11" y1="595.66" x2="443.1" y2="595.66" xlink:href="#未命名的渐变_200"/><linearGradient id="未命名的渐变_248" x1="48.61" y1="26.16" x2="70.61" y2="26.7" gradientUnits="userSpaceOnUse"><stop offset="0" stop-color="#fff"/><stop offset="1" stop-color="#fff" stop-opacity="0"/></linearGradient><linearGradient id="未命名的渐变_223" x1="67.15" y1="25.3" x2="84.43" y2="58.29" gradientUnits="userSpaceOnUse"><stop offset="0" stop-color="#ff8f8f"/><stop offset="1" stop-color="#915252"/></linearGradient><linearGradient id="未命名的渐变_223-2" x1="70.73" y1="23.42" x2="88.01" y2="56.41" xlink:href="#未命名的渐变_223"/><linearGradient id="未命名的渐变_242" x1="72.24" y1="22.63" x2="89.52" y2="55.62" gradientUnits="userSpaceOnUse"><stop offset="0" stop-color="#ff9c9c"/><stop offset="1" stop-color="#d66161"/></linearGradient><linearGradient id="未命名的渐变_166-2" x1="41.12" y1="60.04" x2="64.03" y2="60.04" xlink:href="#未命名的渐变_166"/><linearGradient id="未命名的渐变_162-5" x1="38.98" y1="55.54" x2="66.07" y2="55.54" xlink:href="#未命名的渐变_162"/><radialGradient id="未命名的渐变_265" cx="50.03" cy="51.85" r="11.59" gradientUnits="userSpaceOnUse"><stop offset="0" stop-color="#09ffff"/><stop offset="0.54" stop-color="#41c7a5"/><stop offset="0.79" stop-color="#4ef4fa"/></radialGradient><linearGradient id="未命名的渐变_248-2" x1="71.86" y1="34.12" x2="91.42" y2="57.38" xlink:href="#未命名的渐变_248"/></defs><title>练习</title><path class="cls-1" d="M58.42,54.23a17.66,17.66,0,0,1,3.71-.95,27.06,27.06,0,0,1,8.4.08,17.84,17.84,0,0,1,3.7,1l48.31,19.8a8.65,8.65,0,0,1,2.67,1.61,2.93,2.93,0,0,1,1,1.82,2.38,2.38,0,0,1-.69,1.81A6.71,6.71,0,0,1,123.11,81L74.66,101.58a17.68,17.68,0,0,1-4,1.11,27.08,27.08,0,0,1-9.06-.08,17.86,17.86,0,0,1-4-1.18L9.34,79.94A6.84,6.84,0,0,1,6.94,78.3a2.41,2.41,0,0,1-.68-1.83,2.88,2.88,0,0,1,1-1.8A8.5,8.5,0,0,1,10,73.12Z"/><path class="cls-2" d="M58.42,67.45a17.66,17.66,0,0,1,3.71-.95,27.06,27.06,0,0,1,8.4.08,17.84,17.84,0,0,1,3.7,1l48.31,19.8A8.65,8.65,0,0,1,125.2,89a2.93,2.93,0,0,1,1,1.82,2.38,2.38,0,0,1-.69,1.81,6.71,6.71,0,0,1-2.41,1.59L74.66,114.8a17.68,17.68,0,0,1-4,1.11,27.08,27.08,0,0,1-9.06-.08,17.86,17.86,0,0,1-4-1.18L9.34,93.16a6.84,6.84,0,0,1-2.41-1.63,2.41,2.41,0,0,1-.68-1.83,2.88,2.88,0,0,1,1-1.8A8.5,8.5,0,0,1,10,86.34Z"/><rect class="cls-3" x="60.71" y="86.21" width="8.91" height="36.81" rx="4.45" ry="4.45"/><path class="cls-4" d="M58.42,81.17a17.66,17.66,0,0,1,3.71-.95,27.06,27.06,0,0,1,8.4.08,17.84,17.84,0,0,1,3.7,1l48.31,19.8a8.65,8.65,0,0,1,2.67,1.61,2.93,2.93,0,0,1,1,1.82,2.38,2.38,0,0,1-.69,1.81,6.71,6.71,0,0,1-2.41,1.59L74.66,128.52a17.68,17.68,0,0,1-4,1.11,27.08,27.08,0,0,1-9.06-.08,17.86,17.86,0,0,1-4-1.18L9.34,106.87a6.84,6.84,0,0,1-2.41-1.63,2.41,2.41,0,0,1-.68-1.83,2.88,2.88,0,0,1,1-1.8A8.5,8.5,0,0,1,10,100.06Z"/><path class="cls-5" d="M132.58,54.25a2.26,2.26,0,0,1-.07.47h0a2.53,2.53,0,0,1-.17.46h0a3.05,3.05,0,0,1-.27.45h0a3.91,3.91,0,0,1-.37.44h0a5.12,5.12,0,0,1-.47.43h0a6.72,6.72,0,0,1-.58.42h0c-.21.13-.43.26-.67.39l0,0c-.24.13-.5.25-.78.36L75.65,80.45c-.38.16-.78.31-1.19.44l-.38.12-.92.26-.43.11-1.07.22-.3.06c-.47.08-.94.15-1.42.2l-1.1.11h0L67.56,82H66.25L65,82h0l-1.25-.09h0l-1.23-.14h0l-1.21-.19h0q-.59-.11-1.17-.25h0Q59.51,81.2,59,81h0q-.53-.16-1-.34l0,0c-.34-.12-.67-.26-1-.4L3.52,56.55A10.13,10.13,0,0,1,2,55.75,5.94,5.94,0,0,1,1,54.86a3.47,3.47,0,0,1-.64-.93,2.38,2.38,0,0,1-.22-1c0,2.64,0,5.81.07,8.44a2.42,2.42,0,0,0,.22,1,3.51,3.51,0,0,0,.64.94,6,6,0,0,0,1.06.89A10.07,10.07,0,0,0,3.59,65L56.81,88.95l.07,0L57,89,57,89l.07,0,.29.12.3.12.11,0,0,0,.15.05.31.11.25.08.26.08.06,0h0l.17,0,.26.07.23.06.24.06.2,0h0l.24.06.23.05.23,0,.23,0,.21,0h0l.23,0,.23,0,.23,0,.23,0,.23,0h.06l.17,0,.23,0,.23,0,.23,0,.23,0h.23l.23,0,.24,0,.24,0,.24,0h3.25l.3,0,.38,0h.11l.27,0,.38,0,.37,0h.08c.45-.05.9-.11,1.33-.19l.08,0h.07l.23,0,1.07-.22.2,0,.23-.07.92-.26.26-.07.12,0c.41-.14.81-.28,1.19-.45L128.91,66.2l0,0,0,0,0,0,0,0,.26-.12.25-.12.08,0,0,0,.11-.06.22-.13.17-.1.16-.1h0l.16-.11.15-.11.13-.1L131,65h0l.1-.08.11-.1.1-.09.1-.09.07-.07h0l0,0,.09-.09.08-.09.07-.09.07-.09,0-.06h0l0,0,.06-.09.06-.09.05-.09,0-.09,0-.06h0v0l0-.09,0-.09,0-.1,0-.1v-.06h0v0l0-.1,0-.1v-.25h0Z"/><path class="cls-6" d="M57.6,28.63a19.5,19.5,0,0,1,4.09-1,29.88,29.88,0,0,1,9.27.09A19.7,19.7,0,0,1,75,28.79L128.4,50.65a9.55,9.55,0,0,1,2.95,1.78,3.23,3.23,0,0,1,1.11,2,2.63,2.63,0,0,1-.76,2A7.41,7.41,0,0,1,129,58.19L75.54,80.91a19.53,19.53,0,0,1-4.39,1.22,29.9,29.9,0,0,1-10-.09,19.72,19.72,0,0,1-4.38-1.3L3.41,57a7.55,7.55,0,0,1-2.66-1.8,2.67,2.67,0,0,1-.75-2,3.18,3.18,0,0,1,1.13-2,9.38,9.38,0,0,1,3-1.72Z"/><polygon class="cls-7" points="26.22 54.16 12.98 48.97 27.91 43.12 26.22 54.16"/><polygon class="cls-8" points="43.06 61.06 29.82 55.87 49.7 48.64 56.27 51 43.06 61.06"/><path class="cls-9" d="M41.88,48.31l-13.77,6c-2.29.15-3.84-.57-3.84-3.83V9.85A5.28,5.28,0,0,1,27.5,5.08L41.68.14c1.78-.59,4.55.73,4.55,2.76V43.55C46.23,45.57,43.66,47.72,41.88,48.31Z"/><path class="cls-10" d="M43.24,49.65,30,54.46c-1.65.6-3-.58-3-2.62V11a5.32,5.32,0,0,1,3-4.79L43.24,1.37c1.65-.6,3,.58,3,2.62V44.86A5.32,5.32,0,0,1,43.24,49.65Z"/><polygon class="cls-11" points="35.22 27.67 29.82 29.62 29.82 22.95 35.22 20.99 35.22 27.67"/><polygon class="cls-11" points="43.51 19.8 36.61 22.3 36.61 20.49 43.51 17.98 43.51 19.8"/><polygon class="cls-11" points="43.51 24.66 36.61 27.16 36.61 24.51 43.51 22.01 43.51 24.66"/><polygon class="cls-11" points="43.51 42.33 29.82 47.3 29.82 43.91 43.51 38.94 43.51 42.33"/><path class="cls-12" d="M61.6,25.77,47.8,30.85c-1.17.45-3.87-.26-3.87-1.8V22.89a4,4,0,0,1,2.12-3.62l13.76-5c2.41-.9,5.12.17,5.12,1.71v4.49C64.93,22,62.77,25.32,61.6,25.77Z"/><path class="cls-10" d="M62.81,25.41l-15,5.44c-1.17.42-2.12-.41-2.12-1.86V23.53a3.77,3.77,0,0,1,2.12-3.39l15-5.44c1.17-.42,2.12.41,2.12,1.86V22A3.77,3.77,0,0,1,62.81,25.41Z"/><path class="cls-11" d="M52.93,27.34l-4.26,1.54c-1,.35-1.73-.34-1.73-1.52V24.24a3.08,3.08,0,0,1,1.73-2.77l4.26-1.54c1-.35,1.73.34,1.73,1.52v3.12A3.08,3.08,0,0,1,52.93,27.34Z"/><path class="cls-13" d="M50.9,21.86a.62.62,0,0,0-.29.05c-.71.31-1.59,1.09-1.59,3,0,1.5,1,2,1.81,2.55l14,8.36L77.27,17.57Z"/><g class="cls-14"><polygon class="cls-15" points="71.94 39.16 74.65 39.99 75.18 35.93 72.48 35.1 71.94 39.16"/><path class="cls-16" d="M79.64,18.43l.33,0h.43l.34,0,.37.07c.15,0,.3.06.44.1l-2.7-.83-.2-.06-.24,0L78,17.61l-.11,0h-.79l-.19,0-.54.07-.18,0-.35.09L69,19.67a6.88,6.88,0,0,0-.76.26l0,0-.53.25-.06,0c-.21.11-.42.23-.62.36l-.19.13-.41.29-.22.18-.36.3-.22.2-.34.33-.21.22-.33.38-.18.21c-.13.16-.25.33-.38.5l-.09.13v0l0,.05c-.2.29-.39.6-.56.91l-.08.13-.07.14c-.09.18-.18.35-.27.53l-.11.21,0,.11c-.06.14-.11.28-.17.42l-.12.29,0,.1-.12.35c0,.11-.07.21-.1.31l0,.13c0,.11-.06.23-.09.34s-.05.19-.07.29,0,.12,0,.17,0,.24-.07.36,0,.17,0,.25,0,.13,0,.19,0,.29,0,.44,0,.16,0,.23,0,.25,0,.38,0,.43,0,.64,0,.19,0,.29,0,.33.05.49.06.39.1.58.07.31.1.45.11.36.17.53.1.28.15.41.15.32.24.48.13.24.2.35.2.29.31.42.15.2.23.3a5,5,0,0,0,.38.37c.08.08.16.16.25.23a4.69,4.69,0,0,0,.48.32l.24.15a4.59,4.59,0,0,0,.79.33l2.7.83a4.6,4.6,0,0,1-.79-.33l-.24-.15a4.69,4.69,0,0,1-.48-.32c-.09-.07-.17-.15-.25-.23a5,5,0,0,1-.38-.37c-.08-.09-.16-.2-.23-.3s-.21-.27-.31-.42-.13-.24-.2-.36-.17-.31-.24-.48-.11-.27-.15-.41-.12-.35-.17-.53-.07-.3-.11-.45-.07-.38-.1-.58,0-.33-.05-.49,0-.61,0-.93,0-.41,0-.61,0-.29,0-.43,0-.29.07-.44,0-.24.07-.36.07-.31.1-.46S65,28.13,65,28s.09-.3.14-.45l.12-.35c0-.13.1-.26.15-.39s.11-.28.17-.42l.15-.32c.08-.18.17-.36.27-.53l.15-.27c.18-.31.36-.62.56-.91l0-.07.09-.13c.12-.17.25-.34.38-.5l.18-.21.33-.38.21-.22.34-.33.22-.2.36-.3.22-.18.41-.29.19-.13c.2-.13.41-.25.62-.36l.06,0,.58-.27a6.88,6.88,0,0,1,.76-.26l6.84-1.89c.18,0,.36-.08.53-.11Z"/><path class="cls-17" d="M78.57,18.61c3.79-1.05,6.81,1.8,6.7,6.34-.15,6.19-3.31,9.11-7.1,10.16L74.65,40l.54-4.06L71.33,37c-3.8,1.05-6.81-1.8-6.7-6.34s3.31-9.11,7.1-10.16Z"/></g><path class="cls-18" d="M66.1,55.41a.46.46,0,0,1,0,.1h0l0,.09h0l-.05.09h0l-.08.09h0l-.1.09h0L65.7,56h0l-.14.08h0l-.16.07L54.45,60.77l-.24.09-.08,0-.19.05-.09,0-.22,0h-.06l-.29,0-.23,0h-.79l-.26,0h0l-.25,0h0l-.25,0h0l-.24-.05h0L51,60.89h0l-.21-.07h0l-.2-.08L39.7,55.88a2.07,2.07,0,0,1-.31-.17,1.22,1.22,0,0,1-.22-.18.71.71,0,0,1-.13-.19.49.49,0,0,1,0-.2c0,.54,0,3.26,0,3.79a.5.5,0,0,0,0,.2.72.72,0,0,0,.13.19,1.22,1.22,0,0,0,.22.18,2.06,2.06,0,0,0,.3.17L50.6,64.57h.06l.06,0,.06,0h.06l.06,0,.05,0,.05,0h.05l.05,0h2.15l.27,0h.08l.22,0h.09l.19-.05.05,0h0l.24-.09,10.92-4.69h0l.05,0,.05,0h0l0,0,0,0,0,0h0l0,0,0,0,0,0,0,0h0l0,0,0,0,0,0,0,0h0l0,0,0,0,0,0v0h0v-.08h0v-.08h0v0h0Z"/><path class="cls-19" d="M50.76,50.17A4,4,0,0,1,51.6,50a6.11,6.11,0,0,1,1.9,0,4,4,0,0,1,.84.23l10.91,4.47a2,2,0,0,1,.6.36.66.66,0,0,1,.23.41.54.54,0,0,1-.15.41,1.52,1.52,0,0,1-.55.36L54.43,60.86a4,4,0,0,1-.9.25,6.12,6.12,0,0,1-2,0,4,4,0,0,1-.9-.27L39.68,56a1.54,1.54,0,0,1-.54-.37.55.55,0,0,1-.15-.41.65.65,0,0,1,.23-.41,1.92,1.92,0,0,1,.61-.35Z"/><circle class="cls-20" cx="52.55" cy="53.32" r="4.71"/><path class="cls-21" d="M54.06,50.7c-.08,0-1.42.39-1.51.43A4.24,4.24,0,0,0,51,54.57,3.12,3.12,0,0,0,51.85,57L62.12,80.22,128,51.83l-3.75-13.07Z"/><ellipse class="cls-22" cx="70.92" cy="29.27" rx="1.33" ry="2.01"/><ellipse class="cls-22" cx="75.56" cy="27.92" rx="1.33" ry="2.01"/><ellipse class="cls-22" cx="80.21" cy="26.57" rx="1.33" ry="2.01"/><path class="cls-23" d="M68.09,70.13l2.78-1.47a3.39,3.39,0,0,0,2,1.88,4.75,4.75,0,0,0,3.47-.38,7.49,7.49,0,0,0,3.32-2.68,5.17,5.17,0,0,0,1.08-3.41,2,2,0,0,0-1.62-2,10.47,10.47,0,0,0-4.7.56V61a14.2,14.2,0,0,0,4.7-3.23,4.6,4.6,0,0,0,1.31-3.44,1.84,1.84,0,0,0-2-1.81,6.52,6.52,0,0,0-3.93,1.37,9.69,9.69,0,0,0-3.32,4.79l-2.78.73a17.4,17.4,0,0,1,2.54-4.73,12,12,0,0,1,4.39-3.48,11.69,11.69,0,0,1,4.86-1.36,3.16,3.16,0,0,1,2.93,1.32,4.37,4.37,0,0,1,.23,3.57,11.2,11.2,0,0,1-3.55,4.88,4.46,4.46,0,0,1,3.32.92q1.16,1,.77,3.6a9.22,9.22,0,0,1-2.7,5A14.07,14.07,0,0,1,76,72.66a8.38,8.38,0,0,1-5.09.52A3.8,3.8,0,0,1,68.09,70.13Z"/><path class="cls-23" d="M104.33,50.7a14.08,14.08,0,0,1-3,9.32,19.73,19.73,0,0,1-8.1,5.62L88,67.72V46.49l5.24-2.07q5.7-2.26,8.4-.84T104.33,50.7Zm-3.7,1.46q0-4.59-1.85-5.72t-5.55.34l-1.7.67V64l1.7-.67a12.2,12.2,0,0,0,5.55-4Q100.62,56.76,100.62,52.16Z"/><path class="cls-22" d="M70.44,70.13l2.78-1.47a3.39,3.39,0,0,0,2,1.88,4.75,4.75,0,0,0,3.47-.38A7.49,7.49,0,0,0,82,67.48a5.17,5.17,0,0,0,1.08-3.41,2,2,0,0,0-1.62-2,10.47,10.47,0,0,0-4.7.56V61a14.2,14.2,0,0,0,4.7-3.23,4.6,4.6,0,0,0,1.31-3.44,1.84,1.84,0,0,0-2-1.81,6.52,6.52,0,0,0-3.93,1.37,9.69,9.69,0,0,0-3.32,4.79l-2.78.73a17.4,17.4,0,0,1,2.54-4.73,12,12,0,0,1,4.39-3.48,11.69,11.69,0,0,1,4.86-1.36,3.16,3.16,0,0,1,2.93,1.32,4.37,4.37,0,0,1,.23,3.57,11.2,11.2,0,0,1-3.55,4.88,4.46,4.46,0,0,1,3.32.92q1.16,1,.77,3.6a9.22,9.22,0,0,1-2.7,5,14.07,14.07,0,0,1-5.24,3.5,8.38,8.38,0,0,1-5.09.52A3.8,3.8,0,0,1,70.44,70.13Z"/><path class="cls-22" d="M106.68,50.7a14.08,14.08,0,0,1-3,9.32,19.73,19.73,0,0,1-8.1,5.62l-5.24,2.07V46.49l5.24-2.07q5.7-2.26,8.4-.84T106.68,50.7ZM103,52.16q0-4.59-1.85-5.72t-5.55.34l-1.7.67V64l1.7-.67a12.2,12.2,0,0,0,5.55-4Q103,56.76,103,52.16Z"/></svg>