<svg xmlns="http://www.w3.org/2000/svg" xmlns:xlink="http://www.w3.org/1999/xlink" viewBox="0 0 208.38 106.15"><defs><style>.cls-1,.cls-15,.cls-16,.cls-17,.cls-19,.cls-20,.cls-21,.cls-3,.cls-4{fill:none;}.cls-2{isolation:isolate;}.cls-15,.cls-16,.cls-17,.cls-18,.cls-19,.cls-20,.cls-21,.cls-22,.cls-3,.cls-4{stroke-miterlimit:10;}.cls-3,.cls-4{stroke-width:2px;}.cls-3,.cls-5{opacity:0.5;}.cls-3{stroke:url(#未命名的渐变_37);}.cls-4{stroke:url(#未命名的渐变_37-2);}.cls-5{mix-blend-mode:multiply;}.cls-6{clip-path:url(#clip-path);}.cls-7{fill:#000930;}.cls-8{clip-path:url(#clip-path-2);}.cls-9{clip-path:url(#clip-path-3);}.cls-10{clip-path:url(#clip-path-4);}.cls-11{clip-path:url(#clip-path-5);}.cls-12{fill:url(#未命名的渐变_56);}.cls-13{fill:url(#未命名的渐变_37-3);}.cls-14{fill:url(#未命名的渐变_45);}.cls-15,.cls-16,.cls-17,.cls-19,.cls-20,.cls-21{stroke-width:1.5px;}.cls-15{stroke:url(#未命名的渐变_37-4);}.cls-16,.cls-20{opacity:0.7;}.cls-16{stroke:url(#未命名的渐变_37-5);}.cls-17,.cls-21{opacity:0.4;}.cls-17{stroke:url(#未命名的渐变_37-6);}.cls-18{fill:#00a8ea;stroke:#fff;}.cls-18,.cls-22{stroke-width:0.5px;}.cls-19{stroke:url(#未命名的渐变_37-7);}.cls-20{stroke:url(#未命名的渐变_37-8);}.cls-21{stroke:url(#未命名的渐变_37-9);}.cls-22{fill:#00b3f2;stroke:#5fddff;}.cls-23{fill:url(#未命名的渐变_58);}.cls-24{fill:url(#未命名的渐变_58-2);}</style><linearGradient id="未命名的渐变_37" y1="62.11" x2="208.38" y2="62.11" gradientUnits="userSpaceOnUse"><stop offset="0" stop-color="aqua"/><stop offset="1" stop-color="#0070ff"/></linearGradient><linearGradient id="未命名的渐变_37-2" y1="48.5" x2="208.38" y2="48.5" xlink:href="#未命名的渐变_37"/><clipPath id="clip-path"><path class="cls-1" d="M186.06,45.66l-.3,9.76a3,3,0,0,1-.29,1.18,4.29,4.29,0,0,1-.8,1.14,7.25,7.25,0,0,1-1.31,1.06,12.25,12.25,0,0,1-1.83,1l.29-9.8a12.32,12.32,0,0,0,1.83-1A7.24,7.24,0,0,0,185,48a4.25,4.25,0,0,0,.8-1.13A2.93,2.93,0,0,0,186.06,45.66Z"/></clipPath><clipPath id="clip-path-2"><path class="cls-1" d="M22.68,53.84l-.09-9.76a2.94,2.94,0,0,0,.27,1.18,4.29,4.29,0,0,0,.79,1.15A7.33,7.33,0,0,0,25,47.51a12.5,12.5,0,0,0,1.84,1l.08,9.8a12.42,12.42,0,0,1-1.84-1,7.34,7.34,0,0,1-1.31-1.1A4.33,4.33,0,0,1,23,55,3,3,0,0,1,22.68,53.84Z"/></clipPath><clipPath id="clip-path-3"><path class="cls-1" d="M115.82,78l-.14,10a23.84,23.84,0,0,1-5.4,1.52A36.42,36.42,0,0,1,98,89.44a24.07,24.07,0,0,1-5.39-1.62l.08-10a24.33,24.33,0,0,0,5.4,1.61,36.9,36.9,0,0,0,12.35.12A24.09,24.09,0,0,0,115.82,78Z"/></clipPath><clipPath id="clip-path-4"><path class="cls-1" d="M93.67,13.47a24.06,24.06,0,0,1,5-1.29,36.88,36.88,0,0,1,11.44.11,24.32,24.32,0,0,1,5,1.39l65.83,27a11.78,11.78,0,0,1,3.64,2.19A4,4,0,0,1,186,45.32a3.25,3.25,0,0,1-.93,2.47A9.15,9.15,0,0,1,181.82,50l-66,28a24.09,24.09,0,0,1-5.41,1.51,36.9,36.9,0,0,1-12.35-.12,24.33,24.33,0,0,1-5.4-1.61L26.81,48.5a9.32,9.32,0,0,1-3.28-2.22,3.29,3.29,0,0,1-.92-2.49A3.93,3.93,0,0,1,24,41.33a11.58,11.58,0,0,1,3.65-2.12Z"/></clipPath><clipPath id="clip-path-5"><polyline class="cls-1" points="181.03 40.66 181.03 40.66 183.13 41.7 184.67 42.84 185.65 44.07 186.05 45.32 185.87 46.58 185.11 47.8 183.77 48.93 181.82 49.96 115.82 77.99 113.25 78.88 110.4 79.5 107.36 79.86 104.22 79.96 101.09 79.8 98.05 79.38 95.2 78.71 92.65 77.78 26.81 48.5 24.87 47.44 23.53 46.28 22.78 45.05 22.61 43.79 23.02 42.54 24 41.33 25.55 40.21 27.65 39.21 93.67 13.47 96.07 12.71 98.72 12.18 101.54 11.87 104.45 11.79 107.35 11.93 110.16 12.29 112.81 12.87 115.2 13.68 181.03 40.66"/></clipPath><linearGradient id="未命名的渐变_56" x1="35.38" y1="56.18" x2="173.61" y2="56.18" gradientUnits="userSpaceOnUse"><stop offset="0" stop-color="#00aeff"/><stop offset="0.33" stop-color="#0074d5"/><stop offset="0.59" stop-color="#009aff"/><stop offset="1" stop-color="#0037d1"/></linearGradient><linearGradient id="未命名的渐变_37-3" x1="22.46" y1="36.74" x2="185.92" y2="36.74" xlink:href="#未命名的渐变_37"/><linearGradient id="未命名的渐变_45" x1="67.85" y1="95.36" x2="150.58" y2="-40" gradientUnits="userSpaceOnUse"><stop offset="0" stop-color="#5effff"/><stop offset="1" stop-color="#0070ff"/></linearGradient><linearGradient id="未命名的渐变_37-4" x1="169.7" y1="16.93" x2="184.85" y2="16.93" xlink:href="#未命名的渐变_37"/><linearGradient id="未命名的渐变_37-5" x1="169.7" y1="9.84" x2="184.85" y2="9.84" xlink:href="#未命名的渐变_37"/><linearGradient id="未命名的渐变_37-6" x1="169.7" y1="2.74" x2="184.85" y2="2.74" xlink:href="#未命名的渐变_37"/><linearGradient id="未命名的渐变_37-7" x1="23.87" y1="16.93" x2="39.02" y2="16.93" xlink:href="#未命名的渐变_37"/><linearGradient id="未命名的渐变_37-8" x1="23.87" y1="9.84" x2="39.02" y2="9.84" xlink:href="#未命名的渐变_37"/><linearGradient id="未命名的渐变_37-9" x1="23.87" y1="2.74" x2="39.02" y2="2.74" xlink:href="#未命名的渐变_37"/><linearGradient id="未命名的渐变_58" x1="31.44" y1="7.55" x2="31.44" y2="33.78" gradientUnits="userSpaceOnUse"><stop offset="0" stop-color="aqua"/><stop offset="1" stop-color="#0070ff" stop-opacity="0"/></linearGradient><linearGradient id="未命名的渐变_58-2" x1="177.27" y1="8.8" x2="177.27" y2="35.02" xlink:href="#未命名的渐变_58"/></defs><title>练习</title><g class="cls-2"><g id="图层_1" data-name="图层 1"><path class="cls-3" d="M90.74,21.2a30.38,30.38,0,0,1,6.38-1.63,46.56,46.56,0,0,1,14.44.14,30.7,30.7,0,0,1,6.36,1.75L201,55.52a14.87,14.87,0,0,1,4.59,2.77,5,5,0,0,1,1.74,3.13,4.1,4.1,0,0,1-1.18,3.12A11.55,11.55,0,0,1,202,67.26l-83.34,35.4a30.42,30.42,0,0,1-6.83,1.9,46.59,46.59,0,0,1-15.59-.15,30.72,30.72,0,0,1-6.82-2l-83.13-37a11.77,11.77,0,0,1-4.14-2.81A4.15,4.15,0,0,1,1,59.48a5,5,0,0,1,1.75-3.1A14.62,14.62,0,0,1,7.38,53.7Z"/><path class="cls-4" d="M90.74,7.59A30.38,30.38,0,0,1,97.12,6a46.56,46.56,0,0,1,14.44.14,30.7,30.7,0,0,1,6.36,1.75L201,41.91a14.87,14.87,0,0,1,4.59,2.77,5,5,0,0,1,1.74,3.13,4.1,4.1,0,0,1-1.18,3.12A11.55,11.55,0,0,1,202,53.66L118.7,89.05a30.42,30.42,0,0,1-6.83,1.9,46.59,46.59,0,0,1-15.59-.15,30.72,30.72,0,0,1-6.82-2l-83.13-37A11.77,11.77,0,0,1,2.18,49,4.15,4.15,0,0,1,1,45.87a5,5,0,0,1,1.75-3.1,14.62,14.62,0,0,1,4.61-2.68Z"/><g class="cls-5"><g class="cls-6"><path class="cls-7" d="M186.06,45.66l-.3,9.76v.31L186,46v-.3"/><path class="cls-7" d="M186,46l-.3,9.76,0,.12,0,.12,0,.12,0,.12.3-9.77,0-.12,0-.12,0-.12,0-.12"/><path class="cls-7" d="M185.92,46.44l-.3,9.77,0,.12,0,.12-.05.12-.06.12.3-9.77.06-.12.05-.12,0-.12,0-.12"/><path class="cls-7" d="M185.73,46.91l-.3,9.77-.06.12-.07.11-.07.11-.08.11.3-9.77.08-.11.07-.11.07-.11.06-.11"/><path class="cls-7" d="M185.46,47.36l-.3,9.77-.08.11-.09.11-.09.11-.1.11.29-9.78.1-.11.09-.11.09-.11.08-.11"/><path class="cls-7" d="M185.1,47.81l-.29,9.78-.11.12-.11.12-.12.11-.12.11.29-9.78.12-.11.12-.11.11-.11.11-.12"/><path class="cls-7" d="M184.64,48.27,184.35,58l-.14.12-.14.12-.15.12-.16.12.29-9.79.16-.12.15-.12.15-.12.14-.12"/><path class="cls-7" d="M184,48.74l-.29,9.79-.19.13-.2.13-.2.13L183,59l.29-9.79.21-.13.2-.13.2-.13.19-.13"/><path class="cls-7" d="M183.25,49.25,183,59l-.28.16-.29.15-.3.15-.32.15.29-9.8.32-.15.3-.15.29-.15.28-.15"/><path class="cls-7" d="M182.06,49.85l-.29,9.8-.06,0-.06,0-.06,0-.06,0,.29-9.8.06,0,.06,0,.06,0,.06,0"/></g><g class="cls-8"><path class="cls-7" d="M26.81,48.5l.08,9.8a12.42,12.42,0,0,1-1.84-1,7.34,7.34,0,0,1-1.31-1.1A4.33,4.33,0,0,1,23,55a3,3,0,0,1-.27-1.2l-.09-9.76a2.94,2.94,0,0,0,.27,1.18,4.29,4.29,0,0,0,.79,1.15A7.33,7.33,0,0,0,25,47.51a12.5,12.5,0,0,0,1.84,1"/></g><polygon class="cls-7" points="181.82 49.96 181.54 59.75 115.68 88.04 115.82 77.99 181.82 49.96"/><polygon class="cls-7" points="92.65 77.78 92.57 87.82 26.89 58.3 26.81 48.5 92.65 77.78"/><g class="cls-9"><path class="cls-7" d="M115.82,78l-.14,10c-.51.22-1.05.42-1.61.61s-1.14.35-1.75.5-1.22.28-1.85.39-1.28.2-1.94.28l.12-10.06c.66-.07,1.31-.16,1.94-.27s1.26-.24,1.86-.38,1.19-.31,1.75-.49,1.1-.38,1.62-.6"/><path class="cls-7" d="M108.65,79.74l-.12,10.06-.46,0-.46,0-.47,0-.47,0,.11-10.06.47,0,.47,0,.47,0,.46,0"/><path class="cls-7" d="M106.79,79.9,106.67,90l-.37,0-.37,0h-.75L105.29,80H106l.37,0,.37,0"/><path class="cls-7" d="M105.29,80,105.18,90h-1.34L103.95,80h1.34"/><path class="cls-7" d="M103.95,80,103.84,90h-1.25l.1-10.06h1.26"/><path class="cls-7" d="M102.69,79.92,102.59,90l-.3,0-.3,0-.3,0-.3,0,.1-10.06.3,0,.3,0,.3,0,.3,0"/><path class="cls-7" d="M101.5,79.84l-.1,10.06-.29,0-.29,0-.29,0-.29,0,.1-10.06.29,0,.29,0,.29,0,.29,0"/><path class="cls-7" d="M100.34,79.72l-.1,10.06-.28,0-.28,0-.28,0-.28,0,.1-10.06.28,0,.28,0,.28,0,.29,0"/><path class="cls-7" d="M99.21,79.58l-.1,10.06-.28,0-.28,0-.28,0L98,89.45l.09-10.06.28.05.28,0,.28,0,.28,0"/><path class="cls-7" d="M98.08,79.39,98,89.45l-.29-.05-.29-.06-.28-.06-.28-.06.09-10.06.28.06.28.06.29.06.29.05"/><path class="cls-7" d="M96.94,79.16l-.09,10.06-.3-.07-.3-.07L96,89l-.29-.08.09-10.06.29.08.29.07.3.07.3.07"/><path class="cls-7" d="M95.76,78.87l-.09,10.06-.33-.09-.32-.1-.32-.1-.31-.1.08-10.05.31.1.32.1.32.09.33.09"/><path class="cls-7" d="M94.48,78.48,94.4,88.53,94,88.4l-.38-.14-.37-.14L92.91,88l.08-10,.36.15.37.14.38.14.38.13"/><path class="cls-7" d="M93,77.92l-.08,10-.09,0-.09,0-.08,0-.08,0,.08-10,.08,0,.09,0,.09,0,.09,0"/></g><path class="cls-7" d="M93.67,13.47a24.06,24.06,0,0,1,5-1.29,36.88,36.88,0,0,1,11.44.11,24.32,24.32,0,0,1,5,1.39l65.83,27a11.78,11.78,0,0,1,3.64,2.19A4,4,0,0,1,186,45.32a3.25,3.25,0,0,1-.93,2.47A9.15,9.15,0,0,1,181.82,50l-66,28a24.09,24.09,0,0,1-5.41,1.51,36.9,36.9,0,0,1-12.35-.12,24.33,24.33,0,0,1-5.4-1.61L26.81,48.5a9.32,9.32,0,0,1-3.28-2.22,3.29,3.29,0,0,1-.92-2.49A3.93,3.93,0,0,1,24,41.33a11.58,11.58,0,0,1,3.65-2.12Z"/><g class="cls-10"><g class="cls-11"><path class="cls-7" d="M186.43,47.35c-1.17-9.47,0-22.5,0-33.41V11.79H114.22v1.08H95.9v1.08H93.74l-2.16-2.16h-69v19.4c0,2.53-.7,6.21,0,8.62.13.47,1.61,1.22,1.62,1.35,0,.75-1,.25-1.08,1.08a27.71,27.71,0,0,0-.54,4V80.77H186.43C186.43,69.91,187.77,58.11,186.43,47.35Z"/></g></g></g><path class="cls-12" d="M186.06,36a2.79,2.79,0,0,1-.08.58h0a3.12,3.12,0,0,1-.2.57h0a3.76,3.76,0,0,1-.33.56h0a4.82,4.82,0,0,1-.46.55h0a6.31,6.31,0,0,1-.58.53h0a8.3,8.3,0,0,1-.72.51h0c-.25.16-.53.32-.83.48l0,0c-.3.15-.62.31-1,.45l-66,28c-.47.2-1,.38-1.47.55l-.47.15q-.56.17-1.13.32l-.53.13q-.65.15-1.32.27l-.37.07c-.57.1-1.16.18-1.75.25l-1.36.13h-.05q-.75.06-1.52.08h0q-.77,0-1.54,0h0q-.78,0-1.55,0h0q-.78,0-1.54-.11h0q-.76-.07-1.51-.17h0q-.75-.1-1.49-.24h0q-.73-.14-1.44-.3h0q-.7-.17-1.37-.36h0q-.66-.19-1.28-.42l-.06,0c-.42-.15-.82-.31-1.21-.49L26.81,38.8a12.5,12.5,0,0,1-1.84-1,7.33,7.33,0,0,1-1.31-1.09,4.29,4.29,0,0,1-.79-1.15,2.94,2.94,0,0,1-.27-1.18c0,3.26.06,4.15.09,7.41A3,3,0,0,0,23,43a4.33,4.33,0,0,0,.79,1.16A7.34,7.34,0,0,0,25,45.25a12.42,12.42,0,0,0,1.84,1L92.57,75.77l.08,0,.08,0,.09,0,.09,0,.36.15.37.14.14.05.05,0,.18.07.38.13.31.1.32.1.08,0h0l.21.06.33.09.29.08.29.07.24.06h.05l.3.07.28.06.28.06.29.06.25,0h0l.28.05.28,0,.28,0,.28,0,.28,0h.08l.2,0,.28,0,.28,0,.29,0,.29,0,.16,0h.13l.29,0,.3,0,.3,0,.3,0h3.64l.37,0,.37,0,.47,0h.14l.33,0,.46,0,.46,0h.1c.56-.06,1.11-.14,1.64-.23l.1,0h.08l.29-.06q.67-.12,1.32-.28l.24-.05.29-.08c.39-.1.76-.21,1.13-.32l.32-.09.15-.06c.51-.17,1-.35,1.46-.55L181.54,47.7l.06,0,.06,0,.06,0,.06,0,.32-.15.3-.15.1-.05,0,0,.14-.07L183,47l.21-.13.19-.12h0l.2-.13.19-.13.16-.12.15-.12h0l.12-.1.14-.12.12-.11.12-.11.08-.09h0l0,0,.11-.12.1-.11.09-.11.09-.11.05-.07h0l0,0,.08-.11.07-.11.07-.11.06-.12,0-.08h0v0l.05-.12,0-.12,0-.12,0-.12,0-.07h0v0l0-.12,0-.12v-.31h0Z"/><path class="cls-13" d="M93.54,4.34a24.06,24.06,0,0,1,5-1.29A36.88,36.88,0,0,1,110,3.16a24.32,24.32,0,0,1,5,1.39l65.83,27a11.78,11.78,0,0,1,3.64,2.19,4,4,0,0,1,1.38,2.48,3.25,3.25,0,0,1-.93,2.47,9.15,9.15,0,0,1-3.29,2.16l-66,28a24.09,24.09,0,0,1-5.41,1.51,36.9,36.9,0,0,1-12.35-.12,24.33,24.33,0,0,1-5.4-1.61L26.67,39.37a9.32,9.32,0,0,1-3.28-2.22,3.29,3.29,0,0,1-.92-2.49,3.93,3.93,0,0,1,1.39-2.45,11.58,11.58,0,0,1,3.65-2.12Z"/><path class="cls-14" d="M104.59,71.22h-.37A36.21,36.21,0,0,1,98,70.64,24.62,24.62,0,0,1,92.49,69L26.65,39.73a9.69,9.69,0,0,1-3.42-2.32,3.7,3.7,0,0,1-1-2.79,4.29,4.29,0,0,1,1.51-2.71,12,12,0,0,1,3.78-2.2L93.53,4a24.33,24.33,0,0,1,5.13-1.32,37.27,37.27,0,0,1,11.57.11,24.58,24.58,0,0,1,5.12,1.41l65.83,27a12.15,12.15,0,0,1,3.76,2.27,4.35,4.35,0,0,1,1.5,2.73,3.66,3.66,0,0,1-1,2.77A9.52,9.52,0,0,1,182,41.19l-66,28a24.35,24.35,0,0,1-5.5,1.53A35.91,35.91,0,0,1,104.59,71.22ZM93.82,4.71l-66,25.74a11.18,11.18,0,0,0-3.53,2A3.54,3.54,0,0,0,23,34.69a2.9,2.9,0,0,0,.83,2.19A8.93,8.93,0,0,0,27,39L92.81,68.28a23.83,23.83,0,0,0,5.32,1.58,36.5,36.5,0,0,0,12.22.11,23.61,23.61,0,0,0,5.32-1.48l66-28a8.77,8.77,0,0,0,3.15-2.06,2.86,2.86,0,0,0,.84-2.17A3.6,3.6,0,0,0,184.4,34a11.39,11.39,0,0,0-3.52-2.11l-65.83-27a23.8,23.8,0,0,0-5-1.37,36.5,36.5,0,0,0-11.31-.11,23.56,23.56,0,0,0-5,1.27Z"/><ellipse class="cls-15" cx="177.27" cy="16.93" rx="6.82" ry="1.99"/><ellipse class="cls-16" cx="177.27" cy="9.84" rx="6.82" ry="1.99"/><ellipse class="cls-17" cx="177.27" cy="2.74" rx="6.82" ry="1.99"/><ellipse class="cls-18" cx="31.3" cy="34.83" rx="4.42" ry="2.85"/><ellipse class="cls-19" cx="31.44" cy="16.93" rx="6.82" ry="1.99"/><ellipse class="cls-20" cx="31.44" cy="9.84" rx="6.82" ry="1.99"/><ellipse class="cls-21" cx="31.44" cy="2.74" rx="6.82" ry="1.99"/><ellipse class="cls-22" cx="31.3" cy="34.83" rx="2.24" ry="1.44"/><rect class="cls-23" x="30.88" y="4.52" width="1.12" height="31.29"/><ellipse class="cls-18" cx="177.13" cy="35.95" rx="4.42" ry="2.85"/><ellipse class="cls-22" cx="177.13" cy="35.95" rx="2.24" ry="1.44"/><rect class="cls-24" x="176.71" y="5.77" width="1.12" height="31.29"/></g></g></svg>